<svg preserveAspectRatio="xMidYMid meet" viewBox="294.912 235.52 432.128 546.816" xmlns="http://www.w3.org/2000/svg" version="1.0" style="max-height: 500px" width="432.128" height="546.816">
 <g fill="#fcf5eb">
  <path d="M0 512 l0 -512 512 0 512 0 0 512 0 512 -512 0 -512 0 0 -512z m553.25 250.05 c3.60 -0.30 12 -0.90 18.75 -1.35 6.75 -0.40 15.65 -1.10 19.75 -1.55 4.15 -0.40 9.55 -0.95 12 -1.15 7.05 -0.65 20.45 -2.55 34.50 -4.95 11.55 -2 27.60 -6.55 35.90 -10.25 1.60 -0.70 3.20 -1.30 3.60 -1.30 0.40 0 0.75 -0.20 0.75 -0.50 0 -0.25 0.35 -0.50 0.75 -0.50 0.40 0 1.25 -0.55 1.85 -1.25 0.60 -0.70 1.35 -1.25 1.70 -1.25 0.75 0 2.70 -3.05 2.70 -4.15 0 -1.30 -1.85 -4 -3.80 -5.55 -1.95 -1.55 -11.90 -6.30 -13.20 -6.30 -0.40 0 -4 -1.05 -8 -2.30 -4 -1.25 -8.25 -2.40 -9.45 -2.60 l-2.20 -0.35 -0.70 -3 c-0.65 -3.05 -1.30 -5 -2.30 -7.25 -0.90 -1.95 -7.85 -8.70 -10.60 -10.25 -1.35 -0.80 -2.85 -1.70 -3.25 -2 -1.25 -1 -9.45 -2.25 -14.50 -2.25 -6.20 0 -7.20 -0.50 -7.40 -3.70 -0.15 -2 0.40 -3.85 3.30 -11.20 9.45 -23.95 16.80 -51.70 18.80 -71.05 0.40 -3.55 0.85 -6.70 1 -7 0.70 -1.15 6.15 -0.50 7.65 0.90 0.50 0.45 2.15 1.80 3.70 2.90 5.15 3.80 11.45 12.70 14.60 20.75 1.85 4.55 2.75 9.15 3.40 17.35 0.60 7.45 0.35 11.55 -0.80 11.55 -0.35 0 -0.75 0.75 -0.85 1.75 -0.10 0.95 0 1.75 0.20 1.75 0.80 0 0.40 6.35 -0.65 10.25 -1.10 4.30 -5.30 16.15 -6.05 17.10 -0.35 0.45 0.75 2.10 3.70 5.55 2.25 2.70 4.75 5.70 5.45 6.65 1.55 2 1.95 1.80 4.60 -2.20 7.50 -11.30 13.15 -28.50 14.15 -43.05 0.80 -11.55 -3 -28.75 -8.90 -40.20 -5 -9.80 -13.60 -19.80 -21.25 -24.85 -1.15 -0.75 -2.70 -2.10 -3.40 -3.05 -0.85 -1.10 -1.70 -1.70 -2.55 -1.70 -0.65 0 -1.20 -0.20 -1.20 -0.50 0 -0.25 -0.30 -0.50 -0.65 -0.50 -0.35 0 -1.45 -0.45 -2.50 -1 -1 -0.55 -2.05 -1 -2.30 -1 -0.75 0 -3.90 -2.15 -4.50 -3.10 -0.60 -0.95 -1.15 -4.65 -2.05 -12.90 -1.30 -12.45 -5.35 -30.85 -8.70 -39.35 -1 -2.55 -1.80 -5.10 -1.80 -5.65 0 -0.55 -0.20 -1 -0.50 -1 -0.25 0 -0.50 -0.60 -0.50 -1.35 0 -0.70 -0.35 -1.70 -0.80 -2.20 -1.35 -1.50 -7.20 -14.15 -7.20 -15.65 0 -1.10 0.95 -2.45 4.40 -6.10 12.05 -12.70 18.35 -27.90 18.30 -44.20 -0.05 -7.50 -1.20 -13.85 -4.50 -24.05 -0.95 -2.90 -1.70 -5.65 -1.70 -6.10 0 -0.40 -0.25 -0.85 -0.55 -0.95 -0.30 -0.10 -0.65 -1.25 -0.80 -2.55 -0.15 -1.30 -0.50 -2.35 -0.70 -2.35 -0.25 0 -0.45 -1 -0.45 -2.15 0 -2.05 0.25 -2.45 3.65 -5.90 5.70 -5.90 13.85 -15.80 18.75 -22.80 1.40 -2 8.60 -14.30 8.85 -15.15 0.15 -0.50 1.10 -2.55 2.10 -4.60 3.95 -8.15 8.50 -20.75 10.35 -28.90 3 -13.10 3.40 -16.15 3.50 -25 0.10 -11.90 -1.30 -18.60 -5.75 -27.85 -1.50 -3.15 -2.85 -5 -5.65 -7.80 -6.30 -6.40 -11.25 -7.95 -21.05 -6.65 -11.55 1.55 -23.35 6.90 -37.65 17.05 -3.65 2.60 -6.85 4.75 -7.10 4.75 -0.30 0 -0.50 0.25 -0.50 0.55 0 0.30 -0.60 1.05 -1.35 1.65 -6.95 5.35 -23.25 21.75 -27.80 27.90 -0.60 0.80 -1.35 1.40 -1.70 1.40 -0.35 0 -0.65 0.30 -0.65 0.65 0 0.35 -0.70 1.45 -1.55 2.50 -1.95 2.35 -3.15 2.40 -8.70 0.10 -6.15 -2.55 -10.60 -4.10 -14 -4.80 -1.65 -0.35 -3.35 -0.80 -3.80 -1 -0.45 -0.25 -4.25 -0.85 -8.45 -1.45 -8.50 -1.10 -22.10 -1.35 -28.15 -0.50 -15.80 2.30 -24.35 4.50 -31.45 8.05 -4.55 2.30 -5.25 2.10 -8.95 -2.40 -7.45 -9.20 -22.50 -24.10 -30.70 -30.50 -3.10 -2.40 -16.70 -12.15 -16.95 -12.15 -0.15 0 -2 -1.05 -4.15 -2.35 -11.40 -6.75 -25.55 -10.85 -33.50 -9.70 -10.20 1.50 -18.90 10.60 -22.10 23.10 -2.70 10.70 -2.60 25.95 0.40 40.70 3.25 16.15 13.20 38.45 24.40 54.60 3.55 5.15 9.55 12.45 15 18.35 2.15 2.30 3.80 4.55 4 5.35 0.15 0.80 0.45 1.45 0.70 1.45 1.05 0 0.35 4.70 -1.55 9.95 -1.10 3.05 -2.90 9 -4.05 13.20 -2.05 7.50 -2.05 7.75 -2.10 16.35 -0.05 6.55 0.15 9.65 0.80 12.35 1.60 7 4.40 13.80 7.95 19.45 1.05 1.70 1.90 3.25 1.90 3.50 0 0.25 0.45 0.75 1 1.10 0.55 0.35 1 0.95 1 1.35 0 0.40 0.25 0.75 0.50 0.75 0.30 0 0.50 0.45 0.50 1 0 0.55 0.25 1 0.55 1 0.90 0 3.45 3 3.45 4.05 0 0.55 0.35 0.95 0.80 0.95 0.40 0 1.65 0.70 2.75 1.60 2.65 2.10 2.55 3.20 -0.80 9.50 -10.15 19.20 -15.90 39.95 -18 65.15 -0.60 7.35 -0.55 7.20 -3.55 8.55 -1.45 0.65 -3.30 1.35 -4.05 1.50 -0.75 0.20 -1.50 0.50 -1.65 0.70 -0.15 0.20 -2.65 2 -5.60 3.95 -2.95 2 -7.70 5.85 -10.60 8.60 -2.85 2.70 -5.45 4.95 -5.75 4.95 -0.30 0 -0.55 0.35 -0.55 0.75 0 0.40 -1.55 2.90 -3.50 5.55 -8.70 12.05 -13.55 27.85 -13.45 44.35 0 10.40 0.55 14.15 3.45 24.10 1.95 6.85 4.80 13.30 8.50 19.45 4.75 7.85 4.20 7.45 6.40 4.80 1 -1.25 3.70 -4.30 5.95 -6.80 3.70 -4.10 4.05 -4.65 3.45 -5.50 -0.35 -0.50 -0.85 -1.50 -1.05 -2.20 -0.20 -0.70 -1 -2.60 -1.75 -4.25 -3.50 -7.50 -5.45 -16.60 -5.85 -27.25 -0.15 -4.55 -0.05 -9.10 0.30 -11 0.25 -1.80 0.75 -4.60 1 -6.25 0.65 -3.80 4.05 -12.35 6.75 -16.95 2.50 -4.25 7.65 -9.80 12.55 -13.55 3.50 -2.70 3.75 -2.80 6.30 -2.65 l2.70 0.15 0.30 2.50 c0.90 7.10 1.45 10.20 4.70 27 3.30 16.85 7.65 31 15.55 50.65 2.50 6.15 3.45 10.60 2.30 10.60 -0.25 0 -0.95 0.50 -1.60 1.10 -1.10 1 -1.80 1.15 -6.50 1.20 -6.90 0.10 -10.50 0.80 -14.85 2.95 -4 2 -9.05 6.60 -10.70 9.80 -0.55 1.10 -1.20 1.95 -1.45 1.95 -0.30 0 -0.50 0.35 -0.50 0.80 0 0.45 -0.30 1.50 -0.70 2.35 -0.40 0.90 -0.85 2.65 -1.05 3.90 -0.25 2.20 -0.40 2.35 -2.40 2.95 -5.25 1.55 -6.95 2.05 -12.60 3.50 -7.05 1.85 -10.95 3.10 -13.60 4.45 -1.05 0.50 -2.75 1.35 -3.75 1.80 -1.05 0.50 -1.90 1.05 -1.90 1.30 0 0.25 -0.30 0.45 -0.70 0.45 -0.60 0 -2.45 2.35 -3.70 4.75 -0.80 1.55 0.45 3.30 4.35 6.20 4.15 3.05 6.75 4.20 17.05 7.30 4.25 1.25 8.75 2.60 10 3.05 1.25 0.40 2.90 0.70 3.65 0.70 0.80 0 1.85 0.25 2.40 0.50 1.10 0.60 3.25 1.05 15.45 3.05 4.80 0.80 10.55 1.75 12.75 2.20 2.20 0.40 6.25 1.05 9 1.45 2.75 0.40 6.70 1 8.75 1.30 3.75 0.60 8.30 0.95 23.50 1.95 4.55 0.30 10.75 0.80 13.75 1.10 3.05 0.25 10.35 0.70 16.25 0.95 14 0.55 68.85 0.20 77.25 -0.45z"/>
  <path d="M449.20 726.30 c-0.20 -0.50 -1.40 -0.85 -3.50 -1.05 l-3.20 -0.35 0 -1.70 c0 -1.10 0.25 -1.70 0.70 -1.70 0.40 0 0.80 -0.70 0.95 -1.60 0.10 -0.90 0.75 -2.85 1.40 -4.25 l1.15 -2.65 -4.85 -9.85 c-5.10 -10.55 -6.20 -13.10 -11.10 -26.40 -7.10 -19.30 -11.30 -33.45 -15 -50.50 -5.20 -24.25 -6.10 -45.45 -2.95 -69.50 0.45 -3.30 1 -6.20 1.20 -6.50 0.20 -0.25 0.50 -1.85 0.70 -3.45 0.60 -5.20 5.55 -22.90 7.30 -25.90 0.30 -0.50 0.50 -1.30 0.50 -1.75 0 -0.50 1.20 -3.25 2.65 -6.15 2.60 -5.20 2.60 -5.25 4.55 -5.40 1.45 -0.15 2.95 0.35 6.05 1.85 2.25 1.10 5.55 2.40 7.35 2.85 2.80 0.75 3.55 0.80 5.60 0.20 1.25 -0.35 2.30 -0.80 2.30 -1.05 0 -0.20 0.45 -0.55 1 -0.70 2 -0.65 5.25 -7.75 3.55 -7.75 -0.30 0 -0.55 -0.35 -0.55 -0.75 0 -1.40 -7.30 -7.25 -9 -7.25 -1.20 0 -6.75 -3.10 -8.35 -4.65 -3.35 -3.35 -4.85 -4.35 -6.50 -4.35 -1.05 0 -6.15 -4.30 -6.15 -5.20 0 -0.65 -2.55 -3.30 -3.20 -3.30 -0.55 0 -2.75 -2.60 -3.10 -3.70 -0.15 -0.55 -0.85 -1.50 -1.50 -2.15 -1.90 -1.90 -5.10 -9.10 -6.50 -14.45 -2.35 -9.25 -2.20 -17.60 0.60 -30.20 1.20 -5.40 10.10 -32.90 13.25 -40.90 5.75 -14.50 16.45 -28.50 29.45 -38.50 1.50 -1.15 3 -2.25 3.25 -2.50 4.55 -3.55 15 -8.85 21.75 -11.05 10.85 -3.55 26.90 -5.90 36 -5.35 2.45 0.15 6.60 0.45 9.15 0.60 2.50 0.15 4.80 0.50 5.10 0.75 0.25 0.25 1.45 0.45 2.75 0.45 2.15 0 12.65 2.55 14.40 3.50 0.45 0.25 1.95 0.85 3.25 1.30 1.35 0.50 2.90 1.25 3.50 1.70 0.60 0.45 1.95 1.15 2.95 1.45 3.30 1.10 13.95 7.85 18.15 11.60 12.25 10.80 18.35 18.50 24.30 30.75 4.20 8.60 15.35 42.25 17.45 52.70 0.90 4.35 1.15 12.90 0.50 16.25 -0.30 1.65 -0.75 4.45 -1 6.20 -0.25 1.80 -0.70 3.35 -0.95 3.50 -0.20 0.15 -0.60 1.10 -0.80 2.05 -0.55 2.55 -3 7.20 -6.05 11.55 -3 4.30 -10.85 12.45 -11.95 12.45 -0.40 0 -0.75 0.20 -0.75 0.45 0 0.95 -7.55 5.45 -13.60 8.05 -4.70 2.10 -6.65 3.25 -8.40 5 -2.45 2.45 -3.75 5.55 -3 7.05 0.30 0.50 0.50 1.35 0.50 1.90 0 0.60 0.35 1.05 0.75 1.05 0.40 0 0.75 0.35 0.75 0.75 0 1.15 4.15 2.75 7.05 2.75 2.50 0 9 -2.05 12.70 -3.95 1.05 -0.60 2.90 -1.05 4 -1.05 l2.05 0 3.55 8.40 c7.25 17 11.15 33.45 12.65 53.05 0.75 10.15 0.65 16.50 -0.25 16.85 -1 0.40 -0.95 1.20 0.10 1.20 0.70 0 0.75 0.65 0.50 6.65 -0.40 7.55 -1.25 15.35 -1.85 16.10 -0.20 0.30 -0.50 2.30 -0.70 4.50 -0.30 3.85 -1.85 12.40 -2.80 15.50 -0.25 0.85 -0.70 2.85 -1.05 4.50 -0.80 4.30 -4.90 18.40 -5.45 18.95 -0.30 0.30 -0.50 1.10 -0.50 1.80 0 1.65 -4.95 16.70 -5.55 16.90 -0.25 0.10 -0.45 0.60 -0.45 1.10 0 2.25 -10.15 28.50 -11.05 28.50 -0.25 0 -0.45 0.45 -0.45 1 0 0.55 -1 3.05 -2.25 5.55 l-2.30 4.50 1.40 1.80 c1.10 1.45 1.40 2.45 1.55 5.20 0.15 2.30 0.05 3.45 -0.35 3.45 -0.30 0 -0.55 0.45 -0.55 0.95 0 1.35 -1.10 1.50 -11.55 1.50 l-9.35 0 -0.35 -3.35 c-0.40 -3.60 -1.05 -5.30 -2.70 -6.80 -0.90 -0.80 -1.25 -0.85 -2.30 -0.40 -1.60 0.75 -3.25 3.45 -3.25 5.35 0 2.85 -0.60 5.25 -1.30 5.25 -0.40 0 -0.70 0.25 -0.70 0.50 0 0.30 -3.95 0.50 -10.80 0.50 l-10.85 0 0.35 -4.85 c0.40 -5.80 1.20 -11.05 1.90 -12.30 0.25 -0.50 0.65 -3.65 0.95 -7 0.25 -3.35 0.65 -7.45 0.95 -9.10 0.25 -1.65 0.70 -4.75 1 -6.90 0.25 -2.15 0.70 -4.35 1 -4.85 0.25 -0.50 0.50 -2.10 0.50 -3.50 0 -1.40 0.20 -3.50 0.50 -4.65 0.25 -1.15 0.70 -3.70 1 -5.60 0.50 -3.30 0.65 -3.55 2.40 -4.60 4.15 -2.40 20.35 -15.90 25 -20.80 2.50 -2.70 5.10 -7.15 5.10 -8.90 0 -1.65 -3.05 -5.40 -5.30 -6.50 -2.80 -1.30 -6.20 -1.10 -7.90 0.50 -0.60 0.55 -1.55 1.05 -2.10 1.05 -0.50 0 -1.20 0.50 -1.45 1.10 -0.60 1.35 -6.45 6.10 -16.25 13.25 -12.40 9.10 -13.30 9.65 -14.95 9.65 -1.20 0 -1.55 0.20 -1.55 0.95 0 1.20 -0.90 1.90 -2.75 2.15 -1.15 0.10 -1.55 0.45 -1.65 1.35 -0.20 1.15 -0.30 1.15 -3.25 0.85 -2.65 -0.30 -3.70 -0.75 -7.10 -3.10 -4.55 -3.10 -6.75 -4.95 -6.75 -5.60 0 -0.25 -0.65 -0.60 -1.45 -0.75 -0.90 -0.20 -1.60 -0.70 -1.80 -1.35 -0.15 -0.55 -0.65 -1 -1 -1 -0.40 0 -0.95 -0.40 -1.20 -0.95 -0.30 -0.50 -1.15 -1.05 -1.90 -1.20 -0.75 -0.15 -2 -0.85 -2.75 -1.55 -0.75 -0.75 -1.50 -1.30 -1.70 -1.30 -0.20 0 -1.55 -0.95 -2.90 -2.10 -1.40 -1.20 -2.85 -2.35 -3.20 -2.65 -0.35 -0.25 -1.10 -0.90 -1.65 -1.35 -0.50 -0.50 -1.15 -0.90 -1.45 -0.90 -0.25 0 -0.50 -0.20 -0.50 -0.45 0 -0.20 -0.85 -1 -1.85 -1.70 -1.05 -0.70 -2.75 -2.10 -3.80 -3.05 -1.05 -1 -2.10 -1.80 -2.30 -1.80 -0.25 0 -0.70 -0.35 -1.05 -0.75 -1.40 -1.70 -7.35 -0.40 -9.60 2.10 -1.65 1.80 -2.85 5.15 -2.35 6.75 1.05 3.65 9.25 11.85 20.45 20.45 4.40 3.35 9.40 7.40 10.85 8.80 0.80 0.70 2.15 6.25 2.15 8.80 0 1.05 0.20 2.30 0.45 2.80 0.30 0.50 1.05 4.80 1.75 9.60 0.70 4.80 1.70 11.75 2.25 15.45 0.60 3.70 1.25 8.90 1.55 11.65 0.25 2.70 0.70 5.30 0.95 5.75 0.25 0.45 0.60 2.40 0.80 4.30 l0.40 3.45 -2.55 -0.30 c-1.95 -0.20 -2.60 -0.15 -2.80 0.45 -0.40 1 -4.30 1 -4.30 -0.05 0 -0.90 -2.30 -1.05 -2.60 -0.10 -0.15 0.40 -1.75 0.60 -5.70 0.60 l-5.45 0 -0.25 -4.25 c-0.40 -5.80 -1.70 -7.60 -6 -8.10 -1 -0.10 -1.30 0.10 -1.40 1.10 -0.10 0.70 -0.45 1.55 -0.70 1.90 -0.30 0.35 -0.65 2.30 -0.80 4.35 -0.10 2.05 -0.45 3.75 -0.65 3.75 -0.25 0 -0.45 0.35 -0.45 0.75 0 0.60 -0.65 0.75 -2.75 0.75 -2.10 0 -2.75 -0.15 -2.75 -0.75 0 -0.50 -0.50 -0.75 -1.50 -0.75 -1 0 -1.50 0.25 -1.50 0.75 0 1.05 -5.90 1.10 -6.30 0.05z m68.20 -221.60 c1.70 -0.20 3.10 -0.50 3.10 -0.70 0 -0.20 1.05 -0.75 2.35 -1.25 1.30 -0.50 2.60 -1.10 2.90 -1.35 7.55 -6.05 8.55 -7.15 10.50 -11.40 0.85 -1.80 1.65 -3.35 1.80 -3.50 0.80 -0.75 2.05 -5.15 2.30 -8.25 0.15 -1.90 0.50 -3.75 0.75 -4.05 0.20 -0.30 1.70 -1.05 3.30 -1.60 5.25 -1.95 11.10 -6.15 15 -10.80 1.05 -1.30 2.25 -5.65 1.90 -6.90 -0.50 -1.70 -3.10 -3.55 -5.55 -3.90 l-2.15 -0.35 -0.30 2.45 c-0.25 1.90 -0.55 2.40 -1.25 2.40 -1.60 0 -4.55 3 -4.55 4.60 0 1.10 -0.25 1.40 -1.10 1.40 -0.65 0 -3.15 0.45 -5.65 0.95 -3.30 0.65 -4.55 1.15 -4.65 1.75 -0.20 1 -4 1.15 -4.35 0.15 -0.20 -0.40 -1.05 -0.55 -2.50 -0.45 -1.40 0.15 -2.25 0 -2.25 -0.35 0 -0.30 -0.45 -0.55 -0.95 -0.55 -0.55 0 -1.05 -0.15 -1.15 -0.35 -0.05 -0.25 -1.25 -1.30 -2.65 -2.40 -1.35 -1.05 -2.70 -2.25 -2.90 -2.60 -0.20 -0.35 -0.70 -0.65 -1.05 -0.65 -1 0 -1.30 -1.10 -1.65 -6.15 -0.30 -4.30 -0.25 -4.50 0.90 -5.40 0.65 -0.50 1.55 -0.95 2 -0.95 1.50 0 6.90 -3.95 8.25 -5.95 1.70 -2.60 2.10 -5.95 1 -8.25 -0.45 -0.95 -0.80 -1.90 -0.80 -2.20 0 -0.25 -0.35 -0.60 -0.75 -0.80 -0.40 -0.15 -0.75 -0.60 -0.75 -1.05 0 -0.40 -0.40 -0.75 -0.85 -0.75 -0.50 0 -1.45 -0.45 -2.15 -1 -0.70 -0.55 -1.65 -1 -2.15 -1 -0.50 0 -1.60 -0.30 -2.50 -0.65 -1.25 -0.55 -3 -0.60 -7.85 -0.25 -3.45 0.20 -6.30 0.20 -6.40 -0.05 -0.25 -0.70 -2.50 0 -3.85 1.25 -0.70 0.65 -1.50 1.20 -1.80 1.20 -0.25 0 -0.45 0.55 -0.45 1.25 0 0.70 -0.15 1.25 -0.40 1.25 -0.60 0 -2.10 3.85 -2.10 5.40 0 0.75 0.60 2.70 1.25 4.35 0.70 1.65 1.25 3.25 1.25 3.60 0 0.30 0.80 0.85 1.75 1.15 0.95 0.30 1.75 0.85 1.75 1.20 0 0.40 0.85 0.80 1.95 1 1.10 0.15 2.05 0.45 2.15 0.65 0.05 0.25 1.20 0.90 2.55 1.55 2.10 1.05 2.35 1.35 2.35 2.90 0 1.20 -0.25 1.70 -0.75 1.70 -0.55 0 -0.75 0.55 -0.75 1.80 0 2 -1.35 4.70 -2.35 4.70 -0.35 0 -0.65 0.30 -0.65 0.70 0 2.30 -6.45 6.05 -9.60 5.65 -1.05 -0.15 -1.90 -0.05 -1.90 0.20 0 0.25 -1.55 0.45 -3.50 0.45 -1.90 0 -3.50 -0.20 -3.50 -0.50 0 -0.25 -0.35 -0.35 -0.75 -0.20 -1.25 0.50 -5.25 -0.30 -5.25 -1.05 0 -0.75 -1.10 -1.25 -2.85 -1.25 -0.80 0 -1.35 -0.35 -1.50 -1 -0.15 -0.55 -0.55 -1 -0.90 -1 -0.35 0 -1.95 -1.70 -3.50 -3.75 -1.55 -2.05 -3.20 -3.95 -3.70 -4.20 -1.25 -0.70 -2.80 -0.15 -3.55 1.25 -0.45 0.85 -1.10 1.20 -2.10 1.20 -1.15 0 -1.40 0.20 -1.40 1.15 0 1.45 2.85 6.85 3.65 6.85 0.65 0 4.85 4.35 4.85 5.05 0 0.25 0.35 0.45 0.80 0.45 0.45 0 0.90 0.45 1.05 1 0.15 0.55 0.65 1 1.15 1 0.50 0 1 0.15 1.10 0.40 0.35 0.80 6.40 3.60 7.85 3.60 1.30 0 1.55 0.20 1.55 1.15 0 0.95 0.90 5.25 2.35 11.25 0.15 0.60 0.45 1.10 0.65 1.10 0.20 0 0.65 0.75 1 1.65 0.40 0.85 1.40 2.55 2.35 3.70 0.90 1.15 1.65 2.40 1.65 2.80 0 1.05 2.40 3.85 3.30 3.85 0.40 0 2 0.80 3.50 1.75 1.55 1 3.70 2.15 4.85 2.60 1.15 0.45 2.20 1 2.35 1.20 0.30 0.45 4.20 0.85 6.25 0.65 0.85 -0.10 2.90 -0.30 4.65 -0.50z m-42.90 -98.75 c6.75 -3.05 10 -10.70 6.90 -16 -2.95 -4.90 -7.25 -7.65 -11.80 -7.55 -2.35 0.10 -6.40 2.45 -8.35 4.85 -2 2.50 -2.75 4.65 -2.75 8.05 0 2.40 0.25 2.95 2.40 5.80 1.65 2.20 3.15 3.50 5.05 4.50 3.15 1.65 5.45 1.75 8.55 0.35z m84.30 0.10 c3.20 -1.45 5.90 -4.20 7.40 -7.55 1.20 -2.70 1.30 -3.20 0.80 -5.10 -1.65 -6.20 -7.10 -10.90 -12.60 -10.90 -2.70 0 -6.65 2.20 -8.85 4.85 -2.95 3.55 -3.70 8.90 -1.65 12.15 0.40 0.65 0.90 1.90 1.10 2.75 0.20 0.95 0.65 1.55 1.25 1.65 0.55 0.10 1.35 0.50 1.80 0.90 2.40 2.15 7.50 2.70 10.75 1.25z"/>
  <path d="M513 494.70 c0 -0.25 -0.90 -0.40 -2 -0.30 -1.90 0.20 -5 -0.75 -5 -1.50 0 -0.25 -0.35 -0.40 -0.75 -0.40 -0.40 0 -1.55 -0.90 -2.55 -2 -1 -1.10 -2.35 -2.15 -2.95 -2.30 -2.30 -0.60 -4.35 -7.65 -3.30 -11.45 0.50 -1.90 0.70 -2.10 3.40 -2.90 4 -1.20 10.15 -4.30 10.15 -5.10 0 -0.35 0.35 -0.80 0.80 -0.95 1.15 -0.45 3.60 -0.35 3.80 0.10 0.10 0.20 1.25 1.20 2.55 2.25 2.85 2.10 6.50 3.60 10.25 4.10 l2.60 0.35 0 3.95 c0 3.05 -0.25 4.50 -1.20 6.60 -1.65 3.75 -4.50 6.75 -7.80 8.25 -2.85 1.25 -8 2.10 -8 1.30z"/>
  <path d="M613.50 384.90 c0 -0.30 -0.55 -1.75 -1.25 -3.20 -0.70 -1.50 -1.40 -3.35 -1.55 -4.20 -0.20 -0.80 -0.50 -1.50 -0.75 -1.50 -0.20 0 -1.30 -1.85 -2.45 -4.10 -1.15 -2.25 -2.20 -4.25 -2.40 -4.40 -0.20 -0.15 -1.25 -1.60 -2.30 -3.25 -1.10 -1.65 -3.15 -4.50 -4.65 -6.30 -1.45 -1.80 -2.65 -3.55 -2.65 -3.90 0 -0.30 -0.40 -0.75 -0.85 -0.95 -0.50 -0.20 -3.20 -2.75 -6 -5.65 -5.15 -5.25 -5.15 -5.30 -5.15 -7.80 0 -2.40 0.20 -2.70 4.55 -8.20 5.70 -7.10 16.05 -17.40 21.85 -21.70 8.45 -6.30 15.65 -9.25 22.50 -9.25 7.25 0.05 10.95 2.55 12.60 8.60 0.95 3.50 0.40 16.80 -0.95 22.90 -1.30 5.95 -4.15 14.70 -6.30 19.25 -3.65 7.80 -12.80 23.70 -14.95 25.90 -0.30 0.30 -1.80 2.35 -3.30 4.50 -2.45 3.50 -2.85 3.85 -4.35 3.85 -0.90 0 -1.65 -0.25 -1.65 -0.60z"/>
  <path d="M407.80 383.35 c-8.75 -10.50 -17.20 -25 -21.55 -37.10 -4.35 -11.95 -5.90 -20.25 -5.65 -30.05 0.15 -6.70 0.20 -7.15 1.65 -10 2.05 -3.90 4.40 -5.30 9.75 -5.60 4.70 -0.25 8.55 0.65 14.10 3.45 5.80 2.90 15.40 9.90 15.40 11.20 0 0.75 1.65 2.25 2.40 2.25 0.95 0 2.60 1.65 2.60 2.60 0 0.45 0.45 0.95 0.95 1.15 1.20 0.35 8.05 7 10.95 10.55 1.15 1.45 2.10 3.05 2.10 3.60 0 0.55 0.40 1.10 1 1.25 0.75 0.20 1 0.70 1 2.05 0 1 -0.20 1.80 -0.50 1.80 -0.25 0 -0.50 0.45 -0.50 1 0 0.55 -1.65 2.65 -3.75 4.80 -11.10 11.20 -18.80 21.75 -22.25 30.45 -0.65 1.65 -1.40 3.20 -1.60 3.50 -0.20 0.25 -0.40 0.95 -0.40 1.60 0 0.65 -0.20 1.15 -0.50 1.15 -0.25 0 -0.50 0.35 -0.50 0.75 0 1.25 -3.55 0.95 -4.70 -0.40z"/>
 </g>
 <g fill="#0e2b34">
  <path d="M442.50 745.55 c-1.20 -0.60 -2.20 -1.80 -3.20 -3.75 l-1.45 -2.80 -15.30 -0.05 c-8.40 0 -19 -0.20 -23.55 -0.40 -7.60 -0.35 -8.50 -0.50 -11.25 -1.80 -5.45 -2.60 -10.15 -8.05 -12.20 -14.15 -1.25 -3.70 -1.40 -8.10 -0.30 -8.10 0.40 0 0.75 -0.40 0.80 -0.85 0 -0.50 0.10 -1.65 0.25 -2.50 0.10 -1.10 0 -1.65 -0.45 -1.70 -0.30 0 -0.10 -0.20 0.45 -0.45 1.15 -0.45 2.15 -3.10 1.25 -3.40 -1 -0.35 -0.55 -1.20 0.45 -0.95 0.80 0.20 1.25 -0.15 2 -1.65 0.50 -1.05 2.35 -3.25 4 -4.90 4.60 -4.60 11.40 -7.60 17.30 -7.60 0.95 0 1.70 -0.20 1.70 -0.40 0 -0.25 1.35 -0.45 3 -0.45 1.65 -0.05 3 0.15 3 0.45 0 0.60 2 0 2.90 -0.90 0.35 -0.40 1 -0.90 1.45 -1.15 0.70 -0.40 0.40 -1.55 -2.75 -9.45 -2 -5 -3.60 -9.30 -3.60 -9.55 0 -0.30 -0.40 -0.40 -0.85 -0.25 -0.65 0.20 -0.70 0.15 -0.25 -0.15 0.50 -0.40 0.40 -1.20 -0.60 -3.95 -5 -14.10 -7.90 -25.55 -12.05 -48.05 -0.60 -3.20 -1.10 -4.65 -1.55 -4.65 -0.40 0 -0.70 -0.20 -0.70 -0.50 0 -0.25 0.25 -0.50 0.50 -0.50 0.30 0 0.50 -0.65 0.50 -1.45 0 -2.45 -0.60 -4.55 -1.30 -4.55 -0.40 0 -0.70 -0.20 -0.70 -0.50 0 -0.25 0.25 -0.50 0.50 -0.50 0.30 0 0.50 -0.45 0.50 -1 0 -0.60 -0.35 -1 -0.85 -1 -0.85 -0.05 -0.85 -0.05 0 -0.55 0.45 -0.30 0.75 -0.70 0.60 -1 -1.60 -2.55 -13.90 7.90 -18.55 15.85 -2.75 4.65 -6.15 13.20 -6.70 16.95 -0.25 1.65 -0.65 3.90 -0.85 5 -0.25 1.10 -0.35 5.25 -0.35 9.25 0.10 10.20 2.05 19.55 5.75 27.30 0.80 1.70 1.45 3.30 1.45 3.50 0 0.25 0.65 1.75 1.50 3.30 0.80 1.55 1.30 2.90 1.10 3 -0.60 0.25 -9.55 10.40 -11.75 13.30 -1.10 1.40 -2.15 2.60 -2.35 2.60 -0.60 0 -6.45 -9.25 -9.05 -14.25 -1.50 -2.90 -2.55 -4.45 -3 -4.35 -0.55 0.15 -0.55 0.10 -0.05 -0.30 0.50 -0.35 0.45 -0.95 -0.40 -3.05 -1.40 -3.55 -4.25 -13.85 -4.45 -16.15 -0.05 -0.25 -0.40 -0.40 -0.80 -0.40 -0.40 0 -0.75 -0.20 -0.75 -0.50 0 -0.25 0.25 -0.50 0.50 -0.50 0.30 0 0.50 -0.35 0.50 -0.75 0 -0.40 -0.35 -0.75 -0.75 -0.75 -0.40 0 -0.75 -0.45 -0.75 -1 0 -0.55 0.30 -1 0.65 -1 0.45 0 0.55 -2.20 0.45 -9.80 -0.10 -8 0.05 -10.85 0.85 -15.65 2.05 -11.95 6.40 -22.80 12.60 -31.30 2.45 -3.40 3.35 -5 2.90 -5.25 -0.80 -0.55 -0.05 -1.60 1 -1.40 0.55 0.10 2.85 -1.70 6.05 -4.75 2.80 -2.65 7.55 -6.50 10.55 -8.50 3 -1.95 5.45 -3.85 5.45 -4.20 0 -0.30 0.60 -0.55 1.40 -0.55 0.75 0 2.60 -0.55 4.15 -1.25 3.15 -1.40 3.10 -1.20 3.70 -8.60 2.10 -25.15 7.85 -45.95 18 -65.10 l2.70 -5.10 -1.85 -1.40 c-1 -0.75 -2.30 -1.50 -2.85 -1.65 -0.55 -0.20 -1 -0.75 -1.05 -1.35 -0.05 -1.15 -1.90 -3.25 -3.30 -3.80 -0.55 -0.20 -0.75 -0.60 -0.60 -1.10 0.15 -0.40 0.10 -0.75 -0.20 -0.75 -0.25 0 -0.60 -0.45 -0.75 -1.05 -0.15 -0.55 -0.75 -1.15 -1.30 -1.30 -0.60 -0.15 -0.85 -0.55 -0.70 -0.95 0.15 -0.45 -0.10 -0.70 -0.65 -0.75 -0.55 0 -0.70 -0.15 -0.35 -0.25 0.40 -0.20 0.05 -1.10 -1.05 -2.85 -3.20 -5.05 -6.05 -12.15 -7.65 -19 -0.65 -2.80 -0.85 -5.95 -0.85 -14.10 0 -6.95 -0.15 -10.60 -0.50 -10.85 -0.35 -0.25 -0.25 -0.40 0.25 -0.40 0.65 0 1.15 -1.30 2.15 -5.35 0.75 -3 2.50 -8.85 3.95 -13.05 1.70 -5.05 2.40 -7.80 2.05 -8 -0.30 -0.20 -0.70 -0.95 -0.85 -1.70 -0.20 -0.70 -2 -3.10 -4 -5.25 -12.55 -13.45 -21.15 -26.10 -28.60 -42.15 -4.65 -10.10 -6.35 -14.40 -8.50 -22 -3.10 -10.75 -4.15 -17.45 -4.60 -28.50 -0.70 -19.70 2.55 -31.80 10.80 -40.05 4.55 -4.55 8.95 -6.65 15.05 -7.20 9.40 -0.85 23.15 3.10 34.65 9.95 2.20 1.25 4.15 2.20 4.40 2 0.25 -0.15 0.45 -0.05 0.45 0.25 0 0.25 2.55 2.25 5.65 4.45 9.40 6.65 12.75 9.35 20.85 16.80 7.95 7.35 14.85 14.55 20.45 21.40 l3.15 3.85 2.85 -1.40 c7.05 -3.55 15.60 -5.75 31.50 -8.05 5.45 -0.80 22.30 -0.65 29.05 0.25 3.15 0.40 6.10 0.60 6.60 0.45 0.50 -0.15 0.90 0 0.90 0.30 0 0.40 0.50 0.50 1.25 0.40 0.65 -0.15 1.30 -0.05 1.35 0.20 0.20 0.55 6.40 2 7.20 1.70 0.35 -0.15 0.70 -0.05 0.80 0.15 0.10 0.25 2.50 1.35 5.40 2.45 2.90 1.10 6.10 2.35 7.10 2.80 l1.85 0.80 1.50 -1.85 c1.65 -2 1.90 -2.65 1 -2.65 -0.25 0 -0.35 -0.25 -0.20 -0.50 0.20 -0.30 0.75 -0.50 1.20 -0.40 0.55 0.10 1.50 -0.55 2.35 -1.60 7.05 -8.55 20.60 -22.10 27.40 -27.35 0.90 -0.75 1.30 -1.40 1.10 -1.90 -0.20 -0.60 -0.05 -0.75 0.60 -0.65 0.50 0.05 3.75 -1.90 7.35 -4.45 3.60 -2.55 8.60 -5.80 11.15 -7.25 2.85 -1.65 4.55 -2.85 4.40 -3.25 -0.15 -0.35 0.05 -0.65 0.45 -0.65 0.40 0 0.75 0.25 0.75 0.50 0 0.30 1.30 -0.15 2.90 -0.95 1.65 -0.80 4.85 -2.10 7.15 -2.80 5.65 -1.75 7.15 -2.35 7.50 -2.90 0.20 -0.30 0.75 -0.30 1.25 -0.10 0.55 0.25 1.20 0.35 1.45 0.25 0.30 -0.05 3.55 -0.15 7.25 -0.20 5.05 -0.05 6.90 0.10 7.45 0.60 0.35 0.35 1.05 0.60 1.50 0.50 0.45 -0.10 1.25 0.20 1.80 0.70 0.50 0.50 1.20 0.85 1.45 0.75 0.25 -0.10 2.35 1.70 4.65 4 3.25 3.30 4.55 5.05 6.10 8.30 4.60 9.60 5.80 15.80 5.75 29.35 -0.10 10.55 -0.35 12.65 -3.50 26.50 -1.85 8.15 -6.40 20.75 -10.35 28.90 -1 2.05 -1.95 4.10 -2.10 4.60 -0.25 0.85 -7.45 13.15 -8.85 15.15 -4.80 6.90 -13 16.85 -18.65 22.70 -3.30 3.40 -4.45 5.15 -3.25 5.15 0.25 0 0.50 0.75 0.50 1.70 0 0.95 0.25 1.90 0.50 2.05 0.30 0.20 0.40 0.55 0.25 0.80 -0.20 0.25 -0.05 0.45 0.20 0.45 0.30 0 0.55 0.35 0.55 0.85 0 0.45 0.75 3.20 1.70 6.10 0.95 2.90 2.35 8 3.10 11.30 1.20 5.25 1.40 7.05 1.40 14.25 0.05 6.20 -0.20 9.30 -0.90 12.50 -2.90 13.35 -8.25 23.55 -17.35 33.20 l-4.40 4.60 3.20 6.65 c1.75 3.65 3.55 7.05 3.95 7.50 0.45 0.50 0.80 1.50 0.80 2.20 0 0.75 0.25 1.35 0.50 1.35 0.30 0 0.50 0.45 0.50 1 0 0.55 0.80 3.10 1.80 5.65 3.70 9.45 9.10 35.15 9.45 44.85 0.15 4.90 1.45 9.15 2.40 8.15 0.20 -0.15 0.35 0 0.35 0.35 0 0.35 0.15 0.50 0.35 0.35 0.15 -0.20 0.65 0.10 1.05 0.70 0.45 0.65 1.05 0.95 1.65 0.80 0.55 -0.15 0.95 -0.05 0.95 0.25 0 0.25 0.20 0.35 0.45 0.20 0.25 -0.15 0.60 0.05 0.75 0.50 0.20 0.45 0.65 0.70 1.05 0.50 0.40 -0.15 0.75 -0.05 0.75 0.25 0 0.30 0.25 0.35 0.50 0.20 0.30 -0.15 0.60 0 0.75 0.35 0.15 0.40 0.80 0.70 1.40 0.75 0.60 0.05 1.80 0.90 2.60 1.90 0.85 0.95 2.45 2.40 3.60 3.15 7.85 5.20 17.75 17.15 22.05 26.60 5.60 12.20 8.55 27.05 7.95 39.75 -0.85 16.90 -7.50 36.30 -16.30 47.35 -1.25 1.60 -2.40 2.90 -2.55 2.90 -0.15 0 -1.20 -1.15 -2.25 -2.60 -1.10 -1.45 -4.05 -5 -6.60 -7.95 l-4.55 -5.35 1.15 -2.40 c0.60 -1.35 2.05 -4.95 3.15 -8 3.50 -9.55 4.95 -16.35 3.55 -16.80 -0.75 -0.25 0 -6.40 0.80 -6.40 1.25 0 1.40 -4.35 0.45 -12.35 -0.20 -1.45 -0.50 -2.15 -1 -2.15 -0.70 0 -0.70 -0.10 -0.05 -0.75 0.65 -0.60 0.65 -1.15 0.05 -4 -1.45 -6.90 -5.35 -14.75 -10.65 -21.30 -3 -3.80 -7.80 -7.95 -9.10 -7.95 -0.35 0 -0.45 -0.15 -0.30 -0.35 0.50 -0.45 -1.10 -1.45 -3 -1.85 -1 -0.25 -1.70 -0.15 -1.90 0.20 -0.20 0.35 -0.65 3.50 -1.05 7.05 -2 19.35 -9.35 47.10 -18.80 71.05 -1.90 4.90 -3.40 9.25 -3.30 9.75 0.35 1.90 5 2.75 8.80 1.70 1 -0.30 1.60 -0.30 1.60 0 0 0.25 0.50 0.45 1.15 0.45 0.60 0 2.50 0.30 4.25 0.70 1.70 0.35 3.10 0.45 3.10 0.20 0 -0.80 2 -0.40 2.45 0.55 0.30 0.50 1.85 1.65 3.40 2.55 3.05 1.70 10 8.35 11 10.50 0.95 1.95 2.10 5.80 2.45 8.05 0.20 1.10 0.65 2.15 1 2.30 1.55 0.60 0.30 7.35 -2.10 11.45 -1.80 3.05 -6.60 7.35 -10.25 9.20 -5.45 2.80 -7.10 2.95 -29.75 3 -22.15 0 -21.90 -0.05 -22.60 2.70 -0.25 0.80 -1.25 2.15 -2.30 3 l-1.90 1.55 -27.75 0.15 -27.80 0.15 -3.05 -1.45 c-3.50 -1.65 -6.10 -3.80 -8.85 -7.20 l-1.90 -2.40 -1.90 2.85 c-2.20 3.30 -5.45 5.80 -9.35 7.20 -2.60 0.90 -4.35 0.95 -29.90 0.95 -25.50 0 -27.25 -0.05 -28.90 -0.95z m11.50 -20.90 c0 -0.45 0.90 -0.65 3 -0.65 2.25 0 3 0.20 3 0.70 0 0.40 0.45 0.65 1.20 0.60 0.70 0 1.10 -0.30 0.95 -0.65 -0.15 -0.35 0.05 -0.65 0.50 -0.65 0.55 0 0.80 -0.90 0.95 -3.75 0.15 -2.05 0.55 -4.10 0.90 -4.50 0.55 -0.65 0.55 -0.90 0.10 -1.20 -0.45 -0.25 -0.40 -0.60 0.30 -1.20 1.15 -1.05 4.10 -1.70 4.10 -0.90 0 0.45 0.25 0.45 1 0.05 0.70 -0.35 1 -0.40 1 0 0 0.30 0.55 0.80 1.25 1.10 2.15 0.95 2.95 2.80 3.25 7.40 l0.25 4.25 3.95 -0.05 c2.60 0 4.05 -0.20 4.20 -0.60 0.25 -0.75 6.60 -0.85 6.60 -0.10 0 0.30 -0.25 0.50 -0.60 0.50 -0.30 0 -0.40 0.15 -0.20 0.35 0.20 0.25 0.65 0.05 0.95 -0.40 0.35 -0.45 1.55 -1 2.75 -1.20 2.10 -0.35 3.05 -1.75 1.25 -1.75 -0.85 -0.05 -0.85 -0.05 -0.05 -0.55 0.95 -0.55 0.65 -1.95 -0.40 -1.95 -0.40 0 -0.70 -0.35 -0.70 -0.75 0 -0.40 0.25 -0.75 0.50 -0.75 0.30 0 0.50 -0.20 0.50 -0.50 0 -0.25 -0.35 -0.50 -0.75 -0.50 -0.90 0 -1 -1.85 -0.15 -2.10 0.40 -0.15 0.35 -1.85 -0.30 -6.70 -1.40 -10.65 -2.30 -15.20 -3.10 -15.20 -0.40 0 -0.70 -0.35 -0.70 -0.75 0 -0.40 0.30 -0.75 0.70 -0.75 0.45 0 0.60 -0.35 0.45 -1 -0.15 -0.55 -0.60 -1 -0.95 -1 -0.40 0 -0.70 -0.20 -0.70 -0.50 0 -0.25 0.35 -0.50 0.75 -0.50 0.85 0 0.90 -0.10 0.45 -1.20 -0.15 -0.45 -0.60 -0.80 -1 -0.80 -0.90 0 -0.90 -0.40 0.05 -1.35 0.40 -0.40 0.65 -0.90 0.55 -1.05 -0.10 -0.20 -0.35 -1.45 -0.50 -2.85 -0.45 -3.45 -0.75 -4.25 -1.60 -4.25 -0.40 0 -0.70 -0.20 -0.70 -0.50 0 -0.25 0.25 -0.50 0.50 -0.50 0.65 0 0.65 -2.15 -0.05 -5.65 -0.40 -1.80 -0.85 -2.85 -1.25 -2.85 -0.85 0 -0.90 -0.85 -0.05 -1.15 0.30 -0.15 0.15 -0.30 -0.35 -0.30 -0.55 -0.05 -0.85 -0.20 -0.65 -0.35 0.30 -0.35 -2.95 -3.15 -10.15 -8.65 -7.40 -5.70 -15.95 -13.45 -18.30 -16.65 -2.65 -3.60 -3.20 -6.40 -2 -9.65 1.85 -4.85 4.85 -6.80 10.55 -6.95 3.10 -0.05 3.75 0.10 4.25 0.85 0.30 0.50 0.90 0.80 1.30 0.65 0.40 -0.15 0.70 0 0.70 0.35 0 0.35 1.25 1.60 2.80 2.85 1.55 1.25 3.25 2.65 3.80 3.15 0.50 0.50 1.15 0.75 1.40 0.60 0.30 -0.20 0.50 0.05 0.50 0.45 0 0.85 1.70 1.95 2.20 1.45 0.15 -0.15 0.30 0 0.30 0.40 0.05 0.95 5.30 5.10 6 4.70 0.25 -0.15 0.50 0 0.50 0.35 0 0.85 3.30 3.10 3.95 2.70 0.30 -0.20 0.90 0.25 1.35 0.95 0.45 0.65 1 1.10 1.25 1 0.20 -0.15 0.65 0.25 1 0.85 0.80 1.50 1.50 1.95 2.60 1.60 0.55 -0.20 0.85 0 0.85 0.55 0 0.95 1.85 2.55 6.95 6.10 4.05 2.80 4.60 2.90 7.15 1.05 0.80 -0.55 1.80 -0.85 2.35 -0.65 1 0.30 2.35 -0.90 1.85 -1.70 -0.45 -0.65 1.55 -1.70 2.55 -1.35 0.45 0.20 2 -0.60 3.85 -1.85 10.95 -7.75 24.80 -18.30 26.25 -20 0.30 -0.40 0.50 -1.05 0.45 -1.40 -0.10 -0.45 0.30 -0.70 1.15 -0.70 0.75 0 1.80 -0.40 2.30 -0.85 0.55 -0.50 1.25 -0.90 1.60 -0.90 0.40 0 0.55 -0.30 0.35 -0.75 -0.20 -0.50 0.05 -0.75 0.70 -0.75 0.55 0 1 0.20 1 0.45 0 0.20 0.55 0.30 1.20 0.20 0.65 -0.15 2.45 0.10 4 0.55 5 1.45 8.55 6.65 7.30 10.65 -1.75 5.40 -4.15 8.25 -14.55 17.10 -8.65 7.40 -15.25 12.45 -17.30 13.30 -0.25 0.10 -1.75 9.75 -1.95 12.50 -0.10 1.65 -0.35 3.55 -0.50 4.25 -0.20 0.70 -0.30 1.50 -0.25 1.85 0.05 0.30 -0.15 0.70 -0.40 0.90 -0.30 0.15 -0.40 1.25 -0.20 2.60 0.20 1.45 0.15 2.20 -0.20 2 -0.25 -0.15 -0.50 0.40 -0.55 1.30 -0.05 2.65 -0.15 3.55 -0.50 4.35 -0.25 0.70 -0.60 4.20 -0.60 6.25 0 1.80 -1.10 8.50 -1.45 9 -0.40 0.50 -1.25 5.95 -1.85 11.40 l-0.30 2.85 9.30 0 c5.85 0 9.30 -0.20 9.30 -0.50 0 -0.25 0.30 -0.50 0.70 -0.50 0.50 0 0.80 -0.85 1.05 -2.85 0.50 -4.65 0.70 -5.25 2.55 -7 2.10 -1.95 3.95 -2.15 5.90 -0.60 1.90 1.50 2.65 3.25 3.05 7.10 l0.35 3.35 8.95 0 8.95 0 0 -1.25 c0 -0.70 0.25 -1.25 0.50 -1.25 0.65 0 0.65 -2.05 0.05 -3.65 -0.25 -0.70 -1.15 -2 -2 -3 l-1.55 -1.70 2.75 -5.60 c2.80 -5.75 3.20 -7.25 2.15 -7.75 -0.35 -0.20 -0.15 -0.20 0.45 -0.10 1 0.15 1.40 -0.65 4.60 -8.40 4.75 -11.75 7.50 -19.90 6.70 -20.15 -1 -0.35 -0.75 -1.30 0.25 -1.05 1.30 0.35 3.35 -5.30 2.30 -6.35 -0.90 -0.90 -0.90 -1.25 0.05 -1.25 0.40 0 0.75 0.30 0.75 0.65 0.05 0.95 2.50 -6.70 2.80 -8.75 0.20 -1.40 0.10 -1.90 -0.40 -1.95 -0.35 0 -0.20 -0.20 0.40 -0.45 1.05 -0.40 2.95 -6.10 5.65 -16.85 1.25 -4.85 1.25 -4.65 0.30 -4.65 -0.40 0 -0.75 -0.20 -0.75 -0.50 0 -0.25 0.40 -0.50 0.90 -0.50 0.70 0 0.75 -0.10 0.10 -0.50 -0.65 -0.40 -0.65 -0.50 0.10 -0.50 1 0 1.10 -0.30 2.35 -6.75 1.40 -6.90 1.85 -11.75 1.10 -11.75 -0.95 0 -0.60 -1.35 0.45 -1.65 0.70 -0.15 1 -0.70 1.05 -1.70 0.05 -0.75 0.15 -2 0.25 -2.75 0.10 -1.05 -0.10 -1.40 -0.70 -1.45 -0.80 -0.05 -0.80 -0.10 0 -0.30 1.05 -0.25 1.30 -1.60 1.65 -8.25 0.25 -4.65 0.15 -5.40 -0.50 -5.40 -1.05 0 -1.05 -3.80 0 -4.20 0.90 -0.35 1 -4.10 0.25 -13.85 -1.10 -14.15 -3.75 -27.85 -8.05 -41.45 -1.65 -5.10 -8.10 -20 -8.70 -20 -0.30 0 -1.45 0.45 -2.50 1.05 -7.65 4 -15.80 5.15 -20.50 2.90 -1.35 -0.65 -2.45 -1.50 -2.40 -1.85 0.10 -0.30 -0.30 -0.60 -0.80 -0.60 -1.20 0 -1.90 -0.95 -1.10 -1.45 0.75 -0.50 0.15 -2.05 -0.75 -2.05 -0.40 0 -0.70 -0.35 -0.70 -0.75 0 -0.40 0.25 -0.75 0.50 -0.75 0.30 0 0.50 -0.35 0.50 -0.80 0 -4.25 3.75 -8.60 9.65 -11.20 2.55 -1.10 3.80 -1.90 3.65 -2.35 -0.15 -0.35 0.05 -0.65 0.40 -0.65 0.40 0 0.80 0.20 0.90 0.50 0.15 0.55 7.25 -3.35 9.65 -5.30 1.25 -1.05 1.40 -1.30 0.75 -1.75 -0.60 -0.40 -0.45 -0.45 0.60 -0.25 1.20 0.25 1.85 -0.20 5.65 -4 4.65 -4.70 8.75 -10.25 11.15 -14.95 1.70 -3.45 2.45 -6.25 1.65 -6.25 -0.30 0 -0.55 -0.25 -0.55 -0.55 0 -0.30 0.45 -0.45 0.95 -0.30 0.75 0.15 1 -0.10 1.25 -1.25 0.45 -2.25 0.35 -3.90 -0.20 -3.90 -0.25 0 -0.50 -0.20 -0.50 -0.50 0 -0.25 0.30 -0.50 0.70 -0.50 0.65 0 1.30 -1 1.30 -2.05 0 -0.25 -0.40 -0.50 -0.85 -0.50 -0.85 -0.05 -0.85 -0.10 -0.05 -0.30 2.90 -0.75 1.15 -14.05 -3.75 -29.10 -1.20 -3.65 -1.80 -4.85 -2.35 -4.70 -0.60 0.20 -0.60 0.15 -0.05 -0.25 0.55 -0.40 -0.15 -2.95 -3.65 -13.40 -5.95 -17.65 -10.45 -26.70 -18 -36.15 -3.50 -4.35 -12.05 -12.55 -13.05 -12.55 -0.45 0 -0.70 -0.20 -0.55 -0.45 0.60 -1 -14.05 -10.75 -18.10 -12.10 -1 -0.30 -2.35 -1 -2.95 -1.45 -0.60 -0.45 -2.15 -1.25 -3.50 -1.70 -1.30 -0.50 -2.75 -1 -3.15 -1.15 -0.40 -0.20 -0.95 -0.25 -1.20 -0.20 -0.25 0.05 -0.60 -0.10 -0.75 -0.35 -0.50 -0.75 -10.15 -3.10 -12.70 -3.10 -1.25 0 -2.45 -0.20 -2.60 -0.50 -0.15 -0.25 -0.55 -0.50 -0.80 -0.50 -0.30 0 -0.35 0.25 -0.15 0.60 0.25 0.35 0.15 0.40 -0.25 0.15 -0.60 -0.35 -4.65 -0.85 -11.80 -1.55 -1.65 -0.15 -5.15 0 -7.75 0.30 -2.60 0.35 -6.10 0.70 -7.75 0.80 -7.10 0.50 -20.45 4.30 -28.05 8 -3.80 1.85 -10.50 5.80 -12.45 7.30 -0.25 0.25 -1.75 1.35 -3.25 2.50 -10.60 8.15 -20.50 19.95 -26.20 31.25 -2.65 5.30 -4.05 9.15 -9.95 26.65 -9.05 27 -10.35 36 -7.10 48.90 1.30 5.05 5.50 14.30 6.30 13.80 0.25 -0.15 0.45 0.10 0.45 0.55 0 0.45 0.25 0.65 0.50 0.50 0.30 -0.15 0.50 0.10 0.50 0.65 0 1.05 2.45 4.55 3.20 4.60 0.75 0 3.30 2.60 3.30 3.30 0 0.80 5.10 5.25 5.75 5 1.10 -0.40 3.60 1.25 6.90 4.55 1.95 1.90 7.60 4.85 8.60 4.45 0.40 -0.15 0.75 -0.05 0.75 0.25 0 0.30 0.25 0.35 0.50 0.20 0.30 -0.15 0.50 -0.05 0.50 0.20 0 0.30 0.85 1.05 1.90 1.75 2.55 1.60 5.10 4.15 5.10 5.05 0 0.40 0.20 0.75 0.45 0.75 0.80 0 1.05 3.15 0.45 4.95 -0.80 2.30 -2.75 5.55 -3.35 5.55 -0.25 0 -0.80 0.30 -1.15 0.65 -1.05 1.05 -3.85 1.85 -6.60 1.85 -3.20 0 -7.40 -1.30 -12.50 -3.75 -3.85 -1.90 -3.95 -1.90 -4.65 -0.95 -1.10 1.35 -5.15 10.05 -5.15 10.95 0 0.40 -0.20 1.15 -0.50 1.65 -1.70 2.90 -6.65 20.55 -7.25 25.60 -0.20 1.50 -0.45 3.10 -0.60 3.50 -0.45 1.20 -0.60 1.95 -1.35 7.25 -3.10 21.55 -2.15 42.15 2.95 66 3.85 17.75 8 31.65 15.80 52.55 4.50 12.10 6.25 16.25 11.85 27.65 2.95 5.95 3.95 8.35 3.60 9 -1.95 3.60 -3 6.85 -2.70 8.40 0.30 1.55 0.40 1.65 2.45 1.65 1.45 0 2.25 0.25 2.45 0.75 0.35 0.95 3.30 0.85 3.30 -0.10z m164.55 -345.25 c1.20 -1.75 2.45 -3.45 2.75 -3.75 2.15 -2.20 11.35 -18.10 14.95 -25.90 2.15 -4.60 5 -13.35 6.30 -19.25 1.30 -6.10 1.80 -16.60 0.95 -19.85 -3.15 -11.60 -16.05 -11.35 -32.10 0.60 -8.55 6.35 -26.40 25.60 -26.40 28.40 0 1.05 9.55 11.30 11.15 11.95 0.45 0.20 0.85 0.65 0.85 0.95 0 0.35 1.20 2.10 2.65 3.90 1.50 1.80 3.55 4.65 4.65 6.30 1.05 1.65 2.10 3.10 2.30 3.25 0.20 0.15 1.25 2.15 2.40 4.40 1.15 2.25 2.25 4.10 2.55 4.10 0.25 0 0.45 0.30 0.45 0.70 0 1.70 2.25 6.40 3.20 6.80 0.60 0.25 1.05 0.45 1.10 0.45 0.05 0.05 1.05 -1.35 2.25 -3.05z m-207.60 1.75 c0.85 0.20 1.05 0.05 1.05 -0.90 0 -0.65 0.25 -1.35 0.60 -1.55 0.35 -0.25 0.25 -0.55 -0.35 -1.05 -0.90 -0.65 -0.90 -0.65 0.05 -0.65 0.65 0 1.25 -0.70 1.90 -2.40 3.35 -8.20 11.30 -18.95 22.05 -29.85 3.30 -3.30 3.70 -3.95 3.45 -5.10 -0.30 -1.10 -0.20 -1.25 0.50 -1 0.50 0.20 0.75 0.15 0.55 -0.15 -0.15 -0.30 -0.65 -0.50 -1.05 -0.50 -0.65 0 -0.90 -0.60 -0.75 -1.65 0.20 -1.15 -7.85 -9.85 -9.15 -9.85 -0.25 0 -0.30 -0.15 -0.15 -0.30 0.40 -0.40 -1.55 -2.20 -2.30 -2.20 -0.30 0 -0.35 -0.15 -0.20 -0.35 0.20 -0.20 -0.35 -0.65 -1.20 -1 -0.95 -0.40 -1.45 -0.90 -1.30 -1.35 0.25 -0.70 -1.35 -2.40 -1.85 -1.95 -0.15 0.15 -1.05 -0.40 -2.05 -1.30 -1 -0.85 -1.50 -1.55 -1.15 -1.55 1.65 -0.05 -9.35 -8.10 -14.75 -10.80 -10.65 -5.40 -17.65 -4.70 -21.10 2 -1.35 2.70 -1.50 3.50 -1.65 8.45 -0.45 13.90 6.40 35.05 16.45 50.65 4.70 7.35 10.65 15.20 11 14.60 0.20 -0.30 0.80 -0.40 1.40 -0.25z"/>
  <path d="M506.15 506.65 c-0.65 -0.15 -1.15 -0.40 -1.15 -0.65 0 -0.20 -0.50 -0.30 -1.10 -0.10 -0.70 0.15 -0.95 0.05 -0.70 -0.30 0.15 -0.30 -0.20 -0.70 -0.80 -0.85 -0.65 -0.20 -2.55 -1.25 -4.25 -2.30 -1.70 -1.10 -3.45 -1.95 -3.85 -1.95 -0.85 0 -3.85 -3.50 -3.50 -4.10 0.35 -0.55 -3.25 -4.90 -4.10 -4.90 -0.40 0 -0.70 -0.25 -0.70 -0.55 0 -0.30 0.35 -0.45 0.75 -0.30 0.60 0.25 0.60 0.10 0.15 -0.90 -0.30 -0.65 -0.80 -1.05 -1.15 -0.95 -0.85 0.35 -1.55 -0.80 -0.80 -1.25 0.75 -0.50 0.15 -2.05 -0.75 -2.05 -0.85 0 -0.95 -0.85 -0.15 -1.10 0.80 -0.25 0.05 -2.40 -0.85 -2.40 -0.40 0 -0.70 -0.20 -0.70 -0.50 0 -0.25 0.30 -0.50 0.70 -0.50 0.45 0 0.60 -0.40 0.40 -1.25 -0.10 -0.70 -0.50 -1.25 -0.85 -1.25 -0.35 0 -0.75 -0.50 -0.95 -1.10 -0.40 -1.65 -0.40 -1.80 0.60 -2.05 0.45 -0.15 0.10 -0.25 -0.85 -0.30 -1.55 -0.05 -7.60 -2.85 -7.95 -3.65 -0.10 -0.25 -0.70 -0.40 -1.35 -0.40 -0.65 0 -1.35 -0.20 -1.50 -0.50 -0.15 -0.25 -0.05 -0.50 0.25 -0.50 0.30 0 0.40 -0.20 0.25 -0.50 -0.15 -0.25 -0.75 -0.50 -1.30 -0.50 -0.55 0 -0.90 -0.20 -0.70 -0.45 0.30 -0.55 -3.80 -5.05 -4.65 -5.05 -0.30 0 -1.15 -1.10 -1.85 -2.50 -1.55 -3.10 -1.80 -8.80 -0.40 -9.35 0.50 -0.20 0.95 -0.05 1.05 0.30 0.15 0.40 0.45 0.25 0.95 -0.40 0.40 -0.60 0.60 -1.25 0.45 -1.50 -0.40 -0.60 5.10 -0.65 6.20 -0.05 0.55 0.30 2.20 2.20 3.75 4.25 1.55 2.05 3.05 3.65 3.30 3.45 0.25 -0.15 0.65 0.35 0.95 1.05 0.25 0.70 0.80 1.25 1.10 1.15 1.25 -0.25 3.40 0.65 3.40 1.35 0 0.40 0.25 0.75 0.50 0.75 0.30 0 0.50 -0.20 0.50 -0.50 0 -0.25 0.25 -0.50 0.50 -0.50 0.30 0 0.50 0.40 0.50 0.90 0 0.65 0.10 0.70 0.45 0.15 0.45 -0.75 3.55 -0.35 3.55 0.50 0 0.25 0.90 0.45 2 0.45 1.35 0 2 -0.20 2 -0.70 0 -0.45 0.65 -0.70 2 -0.70 1.10 0 2 0.15 2 0.40 0 1.15 5.60 -2.20 6.90 -4.05 0.60 -0.90 0.60 -1.15 0.05 -1.50 -0.55 -0.30 -0.50 -0.45 0.20 -0.75 0.50 -0.15 1.05 -0.20 1.20 0 0.45 0.40 2.15 -2.20 2.15 -3.30 0 -0.45 -0.25 -0.90 -0.55 -1 -0.35 -0.10 -0.45 -0.65 -0.20 -1.35 0.25 -0.80 0.60 -1.05 1.30 -0.90 0.50 0.15 0.95 0.20 0.95 0.10 0 -0.35 -4.10 -2.25 -4.80 -2.25 -0.40 0 -0.65 -0.20 -0.50 -0.45 0.20 -0.25 -0.20 -0.35 -0.80 -0.15 -0.60 0.15 -0.95 0.05 -0.75 -0.20 0.15 -0.25 -0.35 -0.50 -1.05 -0.45 -1 0 -1.30 -0.25 -1.20 -0.85 0.10 -0.55 -0.45 -1 -1.65 -1.40 -0.95 -0.30 -1.80 -0.80 -1.80 -1.05 -0.15 -0.85 -0.25 -1.20 -1.35 -4.10 -1.30 -3.45 -1.45 -7.75 -0.25 -10.20 0.70 -1.50 0.70 -1.80 0.10 -2.25 -0.55 -0.35 -0.40 -0.45 0.45 -0.25 0.75 0.15 1.10 0 1.10 -0.45 0 -0.40 -0.30 -0.70 -0.60 -0.75 -0.35 0 -0.10 -0.30 0.60 -0.60 0.65 -0.35 1.75 -1.10 2.40 -1.65 1.75 -1.65 5.90 -2.35 6.65 -1.10 0.20 0.30 0.75 0.05 1.35 -0.60 1 -1.10 3.10 -1.05 3.10 0.05 0 0.65 5.70 0.15 5.90 -0.50 0.30 -0.90 1.85 -0.60 2.80 0.50 0.65 0.80 1 0.90 1.30 0.50 0.25 -0.45 0.45 -0.45 0.65 0.15 0.40 0.95 2.15 1.05 2.50 0.20 0.20 -0.40 0.30 -0.35 0.30 0.15 0.05 1 2.35 2.60 3.05 2.20 0.30 -0.15 0.70 0.25 1 0.95 0.25 0.70 0.70 1.30 1 1.30 0.25 0 0.50 0.35 0.50 0.80 0 0.40 0.20 0.65 0.45 0.50 0.25 -0.15 0.55 0.05 0.75 0.45 0.15 0.40 0 0.75 -0.30 0.75 -0.35 0 -0.35 0.20 0 0.65 0.95 1.20 1.15 5.05 0.35 7.75 -1 3.25 -3.80 6.30 -7.50 8.05 -5.35 2.60 -5 2.20 -4.90 5.40 0.15 3.80 0.50 5.15 1.40 5.15 0.40 0 0.90 0.30 1.10 0.65 0.20 0.35 1.55 1.55 2.90 2.60 1.40 1.10 2.60 2.10 2.75 2.25 0.15 0.15 0.60 0.30 1 0.40 0.40 0.10 0.80 0.35 0.90 0.60 0.10 0.20 1.05 0.30 2.20 0.10 1.55 -0.20 2.15 -0.05 2.50 0.60 0.55 0.95 1.50 1.10 1.10 0.15 -0.20 -0.50 0.85 -0.95 3.90 -1.60 2.30 -0.45 4.45 -1.10 4.75 -1.35 0.35 -0.30 1.20 -0.40 1.95 -0.25 0.90 0.15 1.20 0.05 1 -0.45 -0.35 -0.95 3.65 -5.45 4.80 -5.40 0.50 0 0.90 -0.25 0.90 -0.65 0 -0.35 -0.30 -0.65 -0.60 -0.70 -0.35 0 -0.20 -0.20 0.35 -0.45 0.55 -0.25 0.70 -0.45 0.35 -0.45 -0.50 -0.05 -0.50 -0.30 -0.05 -1.15 0.35 -0.65 0.85 -1.30 1.15 -1.50 0.75 -0.50 2.80 -0.50 2.80 0 0 0.45 2.10 0.40 2.90 -0.10 0.35 -0.20 0.60 -0.10 0.60 0.20 0 0.65 2.55 2.80 3.10 2.65 0.40 -0.15 0.85 1.90 0.95 4.35 0.10 1.85 -1.15 6.05 -2.20 7.30 -3.80 4.60 -9.75 8.85 -14.95 10.80 -1.60 0.55 -3.10 1.30 -3.30 1.60 -0.25 0.30 -0.60 2.15 -0.75 4.05 -0.25 3.10 -1.50 7.50 -2.30 8.25 -0.15 0.15 -0.95 1.70 -1.80 3.50 -1.95 4.25 -2.95 5.35 -10.50 11.40 -0.30 0.25 -1.60 0.85 -2.90 1.35 -1.30 0.50 -2.35 1.05 -2.35 1.25 0 0.80 -12.70 1.75 -15.85 1.15z m9.35 -13.90 c0 -0.40 0.35 -0.75 0.75 -0.75 0.40 0 0.75 0.20 0.75 0.50 0 0.85 4.75 -1.55 6.65 -3.40 2.05 -2 4.30 -6.05 4.65 -8.55 0.20 -1.25 0.10 -1.55 -0.65 -1.60 -0.85 -0.05 -0.85 -0.10 0 -0.30 0.50 -0.15 0.85 -0.70 0.85 -1.40 0 -1 -0.30 -1.20 -2.60 -1.50 -3.65 -0.50 -7.40 -2 -10 -3.95 -2.45 -1.85 -4.40 -2.55 -4.40 -1.55 0 0.80 -6.15 3.85 -10.15 5.10 -2.55 0.75 -2.90 1.05 -3.30 2.55 -0.80 2.70 1.25 8.30 3.20 8.80 0.60 0.15 1.90 1.15 2.85 2.20 0.95 1.05 2 1.80 2.30 1.70 0.35 -0.10 0.75 0.15 0.90 0.60 0.15 0.40 0.55 0.65 0.95 0.50 0.35 -0.15 0.75 0.10 0.90 0.50 0.25 0.60 0.85 0.70 2.85 0.45 1.70 -0.20 2.50 -0.10 2.50 0.30 0 0.30 0.25 0.55 0.50 0.55 0.30 0 0.50 -0.35 0.50 -0.75z"/>
  <path d="M464.45 407.10 c-1.95 -1 -3.35 -2.25 -4.95 -4.45 -1.25 -1.70 -2.55 -3.10 -2.85 -3.10 -0.75 -0.05 -0.90 -1.05 -0.15 -1.05 0.30 0 0.50 -0.20 0.50 -0.50 0 -0.25 -0.35 -0.50 -0.75 -0.50 -0.40 0 -0.75 -0.20 -0.75 -0.50 0 -0.25 0.35 -0.50 0.75 -0.50 0.55 0 0.75 -0.65 0.75 -2.70 0 -3.40 0.75 -5.55 2.75 -8.05 3.35 -4.15 8.80 -5.90 14 -4.55 1.65 0.40 3.05 0.70 3.15 0.60 0.30 -0.35 5.50 5.55 6.45 7.30 1.45 2.70 1.20 8.50 -0.45 11.65 -2.70 5.10 -6.90 7.70 -12.45 7.75 -2.70 0 -3.85 -0.25 -6 -1.40z"/>
  <path d="M549.30 407.70 c-1.10 -0.40 -2.35 -1.05 -2.80 -1.45 -0.45 -0.40 -1.20 -0.75 -1.65 -0.75 -0.95 0 -2.60 -2.15 -1.85 -2.40 0.30 -0.10 0.10 -0.90 -0.50 -1.85 -0.60 -1 -1.15 -2.95 -1.35 -4.85 -0.55 -6.30 2.10 -11.35 7.55 -14.20 1.55 -0.80 2.80 -1.60 2.80 -1.80 0 -0.60 1.40 -0.45 1.60 0.15 0.15 0.40 0.70 0.40 2.15 0 1.05 -0.30 2.10 -0.35 2.25 -0.10 0.15 0.25 1.15 0.80 2.20 1.25 5 2.05 8.60 6.95 9.15 12.40 0.50 5.10 -3.25 11.05 -8.55 13.45 -2.50 1.15 -8.10 1.20 -11 0.15z"/>
 </g>
 <g fill="#cfd9d8">
  <path d="M474.50 764 c-5.90 -0.25 -13.20 -0.70 -16.25 -0.95 -3 -0.30 -9.20 -0.80 -13.75 -1.10 -15.20 -1 -19.75 -1.35 -23.50 -1.95 -2.05 -0.30 -6 -0.90 -8.75 -1.30 -2.75 -0.40 -6.80 -1.05 -9 -1.45 -2.20 -0.45 -7.95 -1.40 -12.75 -2.20 -12.20 -2 -14.35 -2.45 -15.45 -3.05 -0.55 -0.25 -1.60 -0.50 -2.40 -0.50 -0.75 0 -2.40 -0.30 -3.65 -0.70 -1.25 -0.45 -5.75 -1.80 -10 -3.05 -4.25 -1.30 -9.05 -2.90 -10.65 -3.55 -4.35 -1.75 -9.80 -5.95 -10.90 -8.40 -1.05 -2.30 -1.20 -3.80 -0.40 -3.80 0.25 0 0.35 -0.20 0.20 -0.50 -0.15 -0.25 -0.05 -0.50 0.25 -0.50 0.30 0 0.40 -0.20 0.25 -0.50 -0.15 -0.25 -0.15 -0.50 0.10 -0.50 0.20 0 0.95 -0.80 1.60 -1.75 0.65 -0.95 1.50 -1.75 1.85 -1.75 0.40 0 0.70 -0.20 0.70 -0.45 0 -0.25 0.85 -0.80 1.90 -1.30 1 -0.45 2.75 -1.30 3.80 -1.85 2.75 -1.35 5.30 -2.20 14.80 -4.75 9.15 -2.50 10.75 -2.90 12.40 -3.40 1 -0.35 1.10 -0.20 1.10 1.45 0 6.70 6.30 15.75 13.25 19.05 2.75 1.30 3.65 1.45 11.50 1.80 4.70 0.25 11.65 0.45 15.50 0.40 3.85 0 10.60 0 15.05 0 l8.05 0.05 1.45 2.80 c2.55 4.95 0.95 4.70 30.60 4.70 24.10 0 25.80 -0.05 28.40 -0.95 4.25 -1.50 7.15 -3.90 10.20 -8.40 1.50 -2.25 2.90 -3.95 3.15 -3.80 0.20 0.10 0.65 0.95 1.05 1.85 1.25 3 6.10 7.65 10 9.55 l3.55 1.80 26.35 -0.15 26.30 -0.15 1.90 -1.55 c1.05 -0.85 2.05 -2.20 2.30 -3 0.70 -2.75 0.45 -2.70 22.60 -2.70 22.65 -0.05 24.30 -0.20 29.75 -3 3.65 -1.85 8.45 -6.15 10.25 -9.20 1.35 -2.35 2.80 -6.85 2.80 -8.80 0 -1.35 0.05 -1.35 2.40 -0.95 1.30 0.20 5.60 1.40 9.60 2.65 4 1.30 7.60 2.30 8 2.30 1.35 0 11.35 4.85 13.35 6.45 2.10 1.70 4.15 5.15 4.15 7.05 0 1.45 -2.35 5.50 -3.20 5.50 -0.35 0 -1.10 0.55 -1.70 1.25 -0.60 0.70 -1.45 1.25 -1.85 1.25 -0.40 0 -0.75 0.25 -0.75 0.50 0 0.30 -0.35 0.50 -0.75 0.50 -0.40 0 -2 0.60 -3.60 1.30 -9.75 4.35 -27.05 9 -41.55 11.20 -1.85 0.30 -6.15 0.95 -9.60 1.50 -3.45 0.55 -7.50 1.10 -9 1.25 -1.50 0.15 -3.30 0.35 -4 0.55 -0.65 0.15 -3.50 0.45 -6.25 0.70 -2.75 0.25 -8.25 0.80 -12.25 1.20 -4 0.40 -12.75 1.10 -19.50 1.50 -6.75 0.45 -15.15 1.05 -18.75 1.35 -8.30 0.70 -66.15 1 -80.25 0.45z"/>
  <path d="M444.25 723.15 c0.50 -3.90 1.30 -6.50 2.35 -7.65 1.55 -1.65 1.60 -0.85 0.20 2.30 -0.70 1.55 -1.30 3.10 -1.30 3.50 0 1.10 2.10 2.70 3.55 2.70 0.75 0 1.45 0.35 1.65 0.75 0.20 0.60 -0.35 0.75 -3.25 0.75 l-3.50 0 0.30 -2.35z"/>
  <path d="M454 724.65 c0 -0.45 0.85 -0.65 3 -0.65 2.10 0 3 0.20 3 0.65 0 0.45 -0.90 0.65 -3 0.65 -2.15 0 -3 -0.20 -3 -0.65z"/>
  <path d="M461.70 724.75 c0.85 -0.90 1.95 -1 1.70 -0.15 -0.10 0.30 -0.70 0.65 -1.35 0.75 -1 0.15 -1.05 0.05 -0.35 -0.60z"/>
  <path d="M482.90 725.20 c0.60 -0.15 1.10 -0.50 1.10 -0.75 0 -0.25 1.45 -0.45 3.25 -0.45 2.25 0 3.25 0.20 3.25 0.65 0 0.45 0.10 0.45 0.40 0 0.20 -0.30 1.40 -0.70 2.65 -0.90 1.90 -0.30 2.30 -0.20 2.30 0.45 0 0.45 -0.45 0.80 -1.05 0.80 -0.60 0 -3.75 0.10 -7.05 0.25 -3.30 0.10 -5.50 0.10 -4.85 -0.05z"/>
  <path d="M562.35 725.15 c-0.20 -0.15 -0.30 -0.90 -0.30 -1.60 0.05 -0.80 0.15 -0.95 0.30 -0.45 0.20 0.75 1.05 0.80 8.55 0.65 4.60 -0.10 8.65 -0.20 9 -0.25 0.30 0 0.60 -0.45 0.60 -0.95 0 -0.50 0.35 -1.05 0.75 -1.25 0.60 -0.20 0.75 0.20 0.75 1.95 l0 2.25 -9.65 0 c-5.35 0 -9.85 -0.15 -10 -0.35z"/>
  <path d="M549 724.50 c0 -0.25 0.35 -0.50 0.75 -0.50 0.40 0 0.75 0.25 0.75 0.50 0 0.30 -0.35 0.50 -0.75 0.50 -0.40 0 -0.75 -0.20 -0.75 -0.50z"/>
  <path d="M493.50 718.75 c0 -0.40 0.35 -0.75 0.75 -0.75 0.40 0 0.75 0.35 0.75 0.75 0 0.40 -0.35 0.75 -0.75 0.75 -0.40 0 -0.75 -0.35 -0.75 -0.75z"/>
  <path d="M493 716.05 c0 -0.50 0.35 -1.05 0.75 -1.25 0.55 -0.20 0.75 0.05 0.75 0.95 0 0.80 -0.30 1.25 -0.75 1.25 -0.40 0 -0.75 -0.45 -0.75 -0.95z"/>
  <path d="M464.60 714.55 c-0.45 -0.25 -0.40 -0.60 0.30 -1.20 1.15 -1.05 4.10 -1.70 4.10 -0.90 0 0.30 -0.30 0.55 -0.70 0.55 -0.35 0 -1.20 0.45 -1.90 0.95 -0.65 0.55 -1.50 0.80 -1.80 0.60z"/>
  <path d="M532.50 709.20 c0.25 -1.10 0.55 -2.40 0.65 -2.95 0.15 -0.55 0.15 0.15 0 1.50 -0.10 1.40 -0.40 2.70 -0.65 2.95 -0.25 0.25 -0.25 -0.45 0 -1.50z"/>
  <path d="M377.65 705.70 c-0.85 -0.85 -0.80 -1.20 0.05 -1.20 0.95 0 1.35 0.65 0.90 1.35 -0.25 0.35 -0.55 0.35 -0.95 -0.15z"/>
  <path d="M533.60 703 c0 -0.95 0.10 -1.35 0.25 -0.85 0.10 0.45 0.10 1.25 0 1.75 -0.15 0.45 -0.25 0.05 -0.25 -0.90z"/>
  <path d="M489.50 692.25 c0 -0.40 0.35 -0.75 0.75 -0.75 0.40 0 0.75 0.35 0.75 0.75 0 0.40 -0.35 0.75 -0.75 0.75 -0.40 0 -0.75 -0.35 -0.75 -0.75z"/>
  <path d="M631.90 692.40 c-1.60 -0.55 -1.85 -1.40 -0.40 -1.40 0.50 0 1.20 0.45 1.50 1 0.30 0.55 0.45 1 0.40 0.95 -0.10 0 -0.75 -0.25 -1.50 -0.55z"/>
  <path d="M403 690.10 c0 -0.25 1.35 -0.45 3 -0.45 1.65 -0.05 3 0.15 3 0.40 0 0.25 -1.35 0.45 -3 0.45 -1.65 0 -3 -0.20 -3 -0.40z"/>
  <path d="M410.65 690.15 c0.45 -0.10 0.85 -0.40 0.85 -0.60 0 -0.15 0.65 -0.70 1.45 -1.20 1.35 -0.80 1.40 -0.80 2 0.45 0.30 0.70 0.55 1.35 0.55 1.45 0 0.15 -1.30 0.20 -2.85 0.20 -1.60 -0.05 -2.50 -0.15 -2 -0.30z"/>
  <path d="M610.50 689.90 c0 -0.35 0.20 -0.95 0.45 -1.30 0.35 -0.55 0.45 -0.55 0.70 0.10 0.20 0.45 0.85 1.05 1.45 1.30 1 0.40 0.90 0.45 -0.70 0.45 -1.20 0.05 -1.90 -0.20 -1.90 -0.55z"/>
  <path d="M619.50 690.30 c0 -0.10 0.55 -0.30 1.25 -0.40 0.70 -0.15 1.25 -0.05 1.25 0.15 0 0.25 -0.55 0.45 -1.25 0.45 -0.70 0 -1.25 -0.10 -1.25 -0.20z"/>
  <path d="M535.30 689.55 c-0.20 -0.25 -0.10 -1 0.15 -1.65 0.45 -1.05 0.50 -1.05 0.50 0.50 0.05 1.60 -0.15 1.95 -0.65 1.15z"/>
  <path d="M489 689 c0 -0.25 0.35 -0.50 0.75 -0.50 0.40 0 0.75 0.25 0.75 0.50 0 0.30 -0.35 0.50 -0.75 0.50 -0.40 0 -0.75 -0.20 -0.75 -0.50z"/>
  <path d="M488.50 686.20 c0 -0.15 0.35 -0.60 0.75 -1 0.65 -0.70 0.75 -0.65 0.75 0.25 0 0.60 -0.30 1.05 -0.75 1.05 -0.40 0 -0.75 -0.15 -0.75 -0.30z"/>
  <path d="M536.35 681.75 c0.35 -2.45 0.65 -2.90 0.65 -0.95 0 0.80 -0.25 1.80 -0.50 2.20 -0.30 0.50 -0.35 0.10 -0.15 -1.25z"/>
  <path d="M487 676.55 c0 -0.25 0.35 -0.55 0.75 -0.75 0.45 -0.15 0.75 0 0.75 0.45 0 0.40 -0.35 0.75 -0.75 0.75 -0.40 0 -0.75 -0.20 -0.75 -0.45z"/>
  <path d="M594.15 671.25 c-0.85 -0.95 -0.80 -1.25 0.10 -1.25 0.40 0 0.75 0.45 0.75 1 0 1.15 -0.05 1.20 -0.85 0.25z"/>
  <path d="M485.50 667 c0 -0.25 0.35 -0.50 0.75 -0.50 0.40 0 0.75 0.25 0.75 0.50 0 0.30 -0.35 0.50 -0.75 0.50 -0.40 0 -0.75 -0.20 -0.75 -0.50z"/>
  <path d="M596.65 663.75 c-0.85 -0.95 -0.80 -1.25 0.10 -1.25 0.40 0 0.75 0.45 0.75 1 0 1.15 -0.05 1.20 -0.85 0.25z"/>
  <path d="M341.50 661.70 c0 -0.15 0.35 -0.60 0.75 -1 0.65 -0.70 0.75 -0.65 0.75 0.25 0 0.60 -0.30 1.05 -0.75 1.05 -0.40 0 -0.75 -0.15 -0.75 -0.30z"/>
  <path d="M341 658.50 c0 -0.55 0.35 -1 0.75 -1 0.40 0 0.75 0.45 0.75 1 0 0.55 -0.35 1 -0.75 1 -0.40 0 -0.75 -0.45 -0.75 -1z"/>
  <path d="M660.05 658.65 c0 -0.60 -0.30 -1.15 -0.60 -1.25 -0.90 -0.30 -0.05 -6.40 0.85 -6.40 0.50 0 0.70 0.60 0.65 2.15 -0.05 2.45 -0.80 7.15 -0.90 5.50z"/>
  <path d="M511.25 656.50 c-0.15 -0.30 0.10 -0.65 0.60 -0.85 0.50 -0.15 1.50 -0.75 2.25 -1.25 1.45 -1 2.40 -1.15 2.40 -0.40 0 0.55 -3.65 3 -4.45 3 -0.25 0 -0.65 -0.25 -0.80 -0.50z"/>
  <path d="M600.15 652.80 c-0.45 -0.55 -0.40 -0.75 0.30 -0.95 0.70 -0.15 0.85 0 0.70 0.70 -0.30 1.10 -0.25 1.10 -1 0.25z"/>
  <path d="M518.30 652.25 c-0.15 -0.40 0.15 -0.95 0.70 -1.25 2.10 -1.15 2.80 -0.15 0.80 1.15 -1.05 0.70 -1.25 0.70 -1.50 0.10z"/>
  <path d="M499.05 647.55 c-0.50 -0.30 -0.50 -0.50 -0.05 -0.80 0.65 -0.40 1.20 -0.05 0.95 0.70 -0.15 0.30 -0.50 0.35 -0.90 0.10z"/>
  <path d="M494.60 644.45 c-1.20 -0.85 -1.95 -1.75 -1.80 -2.05 0.25 -0.35 0.70 -0.10 1.35 0.65 0.55 0.65 1.15 1.15 1.40 1.10 0.25 -0.10 0.65 0.30 0.95 0.85 0.65 1.25 0.70 1.25 -1.90 -0.55z"/>
  <path d="M533.10 639.95 c0.10 -0.35 0.50 -0.75 0.85 -0.85 0.40 -0.15 0.60 0.05 0.45 0.45 -0.10 0.35 -0.50 0.75 -0.85 0.85 -0.40 0.15 -0.60 -0.05 -0.45 -0.45z"/>
  <path d="M605.50 630.05 c0 -0.30 0.40 -0.55 0.90 -0.55 0.70 0 0.75 -0.10 0.10 -0.50 -0.65 -0.40 -0.60 -0.50 0.15 -0.50 0.60 0 0.85 0.30 0.75 0.85 -0.20 0.95 -1.90 1.55 -1.90 0.70z"/>
  <path d="M551.25 627.90 c0.05 -0.65 0.45 -1.20 0.90 -1.30 1.10 -0.20 1.10 0.55 -0.05 1.55 -0.90 0.80 -0.95 0.80 -0.85 -0.25z"/>
  <path d="M556.80 624.20 c-0.20 -0.45 0.05 -0.70 0.70 -0.70 1.15 0 1.35 0.75 0.30 1.15 -0.40 0.15 -0.85 -0.05 -1 -0.45z"/>
  <path d="M391 611.70 c0 -0.15 0.35 -0.60 0.75 -1 0.65 -0.70 0.75 -0.65 0.75 0.25 0 0.60 -0.30 1.05 -0.75 1.05 -0.40 0 -0.75 -0.15 -0.75 -0.30z"/>
  <path d="M610.50 610.75 c0 -0.40 -0.20 -0.75 -0.50 -0.75 -0.25 0 -0.50 -0.35 -0.50 -0.75 0 -0.40 0.35 -0.75 0.75 -0.75 0.50 0 0.75 0.50 0.75 1.50 0 0.85 -0.10 1.50 -0.25 1.50 -0.15 0 -0.25 -0.35 -0.25 -0.75z"/>
  <path d="M390 604.50 c0 -0.25 0.35 -0.50 0.75 -0.50 0.40 0 0.75 0.25 0.75 0.50 0 0.30 -0.35 0.50 -0.75 0.50 -0.40 0 -0.75 -0.20 -0.75 -0.50z"/>
  <path d="M634.50 599.65 c0 -0.85 0.95 -0.80 2.50 0.10 1.25 0.70 1.25 0.70 -0.60 0.60 -1.15 -0.05 -1.90 -0.35 -1.90 -0.70z"/>
  <path d="M389 599.50 c0.95 -0.65 1.50 -0.65 1.50 0 0 0.30 -0.50 0.50 -1.10 0.50 -0.95 0 -1 -0.10 -0.40 -0.50z"/>
  <path d="M358.55 595.55 c-1 -0.65 -0.20 -1.55 1.20 -1.45 1.15 0.10 1.15 0.15 0.40 1 -0.45 0.50 -0.85 0.90 -0.85 0.90 -0.05 0 -0.35 -0.20 -0.75 -0.45z"/>
  <path d="M611.50 586.55 c0 -1.25 0.25 -2.05 0.75 -2.25 0.60 -0.20 0.75 0.20 0.75 1.95 0 1.65 -0.20 2.25 -0.75 2.25 -0.55 0 -0.75 -0.55 -0.75 -1.95z"/>
  <path d="M648.85 580.75 c-1.90 -1.35 -2.50 -2.45 -0.95 -1.90 1.20 0.45 2.05 1.15 2.65 2.25 0.65 1.15 0.55 1.15 -1.70 -0.35z"/>
  <path d="M644.85 578.30 c-0.60 -0.45 -0.70 -0.80 -0.40 -1.05 0.30 -0.15 0.55 -0.05 0.55 0.20 0 0.30 0.25 0.50 0.55 0.45 0.30 -0.10 0.70 0.15 0.80 0.50 0.30 0.80 -0.35 0.75 -1.50 -0.10z"/>
  <path d="M381.50 576.75 c0 -0.40 0.35 -0.75 0.75 -0.75 0.40 0 0.75 0.20 0.75 0.45 0 0.25 -0.35 0.55 -0.75 0.75 -0.45 0.15 -0.75 0 -0.75 -0.45z"/>
  <path d="M642.05 576.80 c-0.75 -0.40 -1 -0.80 -0.60 -1 0.30 -0.20 0.55 -0.10 0.55 0.20 0 0.30 0.20 0.45 0.45 0.30 0.25 -0.15 0.55 0.05 0.75 0.45 0.30 0.90 0.35 0.90 -1.15 0.05z"/>
  <path d="M637.65 574.65 c-0.90 -0.45 -1.65 -1.20 -1.65 -1.60 0.05 -0.70 0.15 -0.70 0.70 0.05 0.35 0.50 0.80 0.75 0.95 0.55 0.20 -0.15 0.35 -0.05 0.35 0.30 0 0.35 0.20 0.50 0.45 0.35 0.25 -0.15 0.55 0.05 0.75 0.45 0.15 0.40 0.20 0.75 0.15 0.70 -0.05 0 -0.85 -0.40 -1.70 -0.80z"/>
  <path d="M622.15 511.45 c-0.60 -1.50 -0.55 -1.60 0.15 -0.85 0.45 0.40 0.70 1.15 0.60 1.65 -0.10 0.60 -0.35 0.35 -0.75 -0.80z"/>
  <path d="M568.35 510.15 c-0.60 -0.55 -0.40 -1.15 0.35 -1.15 0.40 0 0.80 0.35 1 0.75 0.25 0.75 -0.70 1.05 -1.35 0.40z"/>
  <path d="M430 509 c-0.40 -0.25 -0.55 -0.60 -0.35 -0.80 0.20 -0.20 0.75 0 1.20 0.45 0.90 0.90 0.40 1.15 -0.85 0.35z"/>
  <path d="M456.55 507.25 c0.30 -1.05 0.45 -2.75 0.35 -3.85 -0.10 -1.05 -0.05 -1.90 0.15 -1.90 0.70 0 0.90 3.35 0.30 5.10 -0.90 2.55 -1.45 2.95 -0.80 0.65z"/>
  <path d="M506 506.50 c-1 -0.30 -1.05 -0.40 -0.25 -0.40 0.55 0 1.55 0.20 2.25 0.40 1 0.30 1.05 0.40 0.25 0.40 -0.55 0 -1.55 -0.20 -2.25 -0.40z"/>
  <path d="M567 506.25 c0 -0.40 0.35 -0.75 0.75 -0.75 0.40 0 0.75 0.35 0.75 0.75 0 0.40 -0.35 0.75 -0.75 0.75 -0.40 0 -0.75 -0.35 -0.75 -0.75z"/>
  <path d="M520.25 505.50 c1.35 -0.60 1.75 -0.60 1.75 0 0 0.30 -0.60 0.50 -1.35 0.45 -1.25 0 -1.30 -0.05 -0.40 -0.45z"/>
  <path d="M495.25 500.90 c-0.55 -0.30 -1.30 -0.70 -1.70 -0.90 -0.90 -0.40 -3.35 -3.50 -2.75 -3.50 0.25 0.05 1.65 1.15 3.15 2.50 2.85 2.60 3 2.80 1.30 1.90z"/>
  <path d="M448.55 494.30 c-0.75 -0.40 -1 -0.80 -0.60 -1 0.30 -0.20 0.55 -0.10 0.55 0.20 0 0.30 0.20 0.45 0.45 0.30 0.25 -0.15 0.55 0.05 0.75 0.45 0.30 0.90 0.35 0.90 -1.15 0.05z"/>
  <path d="M510.50 493 c1 -0.65 4 -0.65 4 0 0 0.30 -1.05 0.50 -2.35 0.50 -1.75 0 -2.20 -0.15 -1.65 -0.50z"/>
  <path d="M515.50 492.75 c0 -0.40 0.35 -0.75 0.75 -0.75 0.40 0 0.75 0.20 0.75 0.45 0 0.25 -0.35 0.55 -0.75 0.75 -0.45 0.15 -0.75 0 -0.75 -0.45z"/>
  <path d="M405.75 492.45 c-0.60 -0.95 0.25 -1.15 1.10 -0.30 0.80 0.80 0.80 0.85 0.05 0.85 -0.45 0 -1 -0.25 -1.15 -0.55z"/>
  <path d="M506.10 491.40 c-1.70 -0.90 -3.70 -2.35 -4.40 -3.25 -1.80 -2.35 -0.45 -2.05 2.05 0.50 1.20 1.15 2.40 2.05 2.70 1.95 0.30 -0.10 0.70 0.15 0.85 0.60 0.15 0.40 0.55 0.65 0.95 0.50 0.35 -0.15 0.75 0.10 0.90 0.50 0.40 1 0.65 1.05 -3.05 -0.80z"/>
  <path d="M486.90 491.65 c-0.50 -0.10 -0.90 -0.45 -0.90 -0.70 0 -0.70 0.80 -0.55 1.50 0.30 0.35 0.40 0.55 0.70 0.45 0.70 -0.10 -0.05 -0.60 -0.15 -1.05 -0.30z"/>
  <path d="M581.30 491.25 c-0.15 -0.45 0 -0.75 0.45 -0.75 0.80 0 1 0.80 0.30 1.20 -0.25 0.15 -0.55 -0.05 -0.75 -0.45z"/>
  <path d="M435.90 487.30 c-2.15 -1.45 -3.75 -2.80 -3.60 -2.95 0.40 -0.40 4.20 1.50 4.20 2.15 0 0.25 0.45 0.55 0.95 0.75 0.75 0.20 3.10 2.85 2.45 2.70 -0.10 0 -1.90 -1.20 -4 -2.65z"/>
  <path d="M484.85 488.65 c-0.60 -0.55 -0.40 -1.15 0.40 -1.15 0.40 0 0.75 0.35 0.75 0.75 0 0.80 -0.60 1 -1.15 0.40z"/>
  <path d="M483.50 485 c0 -0.25 0.35 -0.50 0.75 -0.50 0.40 0 0.75 0.25 0.75 0.50 0 0.30 -0.35 0.50 -0.75 0.50 -0.40 0 -0.75 -0.20 -0.75 -0.50z"/>
  <path d="M482.50 481.50 c0 -0.25 0.35 -0.50 0.75 -0.50 0.40 0 0.75 0.25 0.75 0.50 0 0.30 -0.35 0.50 -0.75 0.50 -0.40 0 -0.75 -0.20 -0.75 -0.50z"/>
  <path d="M424.50 477.75 c-0.95 -0.95 -1.45 -1.75 -1.20 -1.75 0.65 0 3.45 2.90 3.15 3.25 -0.15 0.10 -1.05 -0.55 -1.95 -1.50z"/>
  <path d="M481.80 477.40 c-0.45 -1.75 -0.40 -1.90 0.70 -1.90 0.80 0 1 0.35 1 1.50 0 1.80 -1.25 2.05 -1.70 0.40z"/>
  <path d="M470.75 470.50 c-0.15 -0.25 0.05 -0.50 0.45 -0.50 0.40 0 0.90 0.25 1.05 0.50 0.15 0.30 -0.05 0.50 -0.45 0.50 -0.40 0 -0.90 -0.20 -1.05 -0.50z"/>
  <path d="M464.85 463.65 c-0.45 -0.10 -1.45 -1.30 -2.10 -2.65 -0.70 -1.35 -1.45 -2.55 -1.70 -2.70 -0.50 -0.35 -0.35 -5.40 0.20 -6.25 0.15 -0.30 0.75 -0.55 1.25 -0.55 0.85 0 0.90 0.30 0.65 3.65 -0.25 3.35 -0.20 3.75 1.30 6.25 0.85 1.40 1.45 2.55 1.40 2.55 -0.05 -0.05 -0.50 -0.15 -1 -0.30z"/>
  <path d="M488.05 463.05 c-0.95 -0.15 -1.80 -0.60 -1.95 -1 -0.20 -0.55 0.15 -0.65 1.45 -0.35 0.90 0.15 1.75 0.50 1.95 0.75 0.15 0.25 0.70 0.55 1.25 0.70 l1 0.25 -1 0 c-0.55 -0.05 -1.75 -0.15 -2.70 -0.35z"/>
  <path d="M529.35 462.95 c-4.80 -1.15 -10 -5.45 -11.60 -9.70 -1.20 -3.05 -0.70 -6.75 0.90 -6.75 1.05 0.05 1.05 0.05 0.15 0.55 -0.80 0.50 -0.85 0.95 -0.55 3.85 0.40 3.90 0.65 4.60 1.55 4.60 0.35 0 0.85 0.30 1.05 0.65 0.20 0.35 1.55 1.55 2.90 2.60 1.40 1.10 2.60 2.10 2.75 2.25 0.15 0.15 0.60 0.30 1 0.40 0.40 0.10 0.80 0.35 0.90 0.55 0.10 0.25 1.10 0.30 2.30 0.20 1.65 -0.20 2.20 -0.10 2.45 0.55 0.35 0.90 -0.70 1 -3.80 0.25z"/>
  <path d="M534.25 462.95 c-0.55 -0.80 -0.10 -1 4.10 -1.80 2.15 -0.40 4.10 -0.95 4.40 -1.20 0.60 -0.60 2.75 -0.55 2.75 0.10 0 0.60 -2.75 1.80 -6.25 2.75 -3.05 0.85 -4.60 0.90 -5 0.15z"/>
  <path d="M493.50 462.30 c0 -0.45 0.65 -0.70 2 -0.70 2.15 -0.05 2.70 0.60 0.90 1.10 -1.85 0.50 -2.90 0.35 -2.90 -0.40z"/>
  <path d="M484.30 461.75 c0.20 -0.40 0.50 -0.75 0.75 -0.75 0.25 0 0.45 0.35 0.45 0.75 0 0.40 -0.35 0.75 -0.75 0.75 -0.45 0 -0.60 -0.30 -0.45 -0.75z"/>
  <path d="M482.05 461.35 c-1.90 -0.95 -1.95 -1.95 -0.10 -1.30 0.85 0.30 1.55 0.85 1.55 1.25 0 0.85 0.05 0.85 -1.45 0.05z"/>
  <path d="M545.95 459.40 c-0.15 -1.50 0.25 -2.25 2.05 -4 2.95 -2.85 4 -2.35 1.95 0.90 -1.25 2.05 -3.90 4.10 -4 3.10z"/>
  <path d="M612.15 458.75 c-0.85 -0.95 -0.80 -1.25 0.10 -1.25 0.40 0 0.75 0.45 0.75 1 0 1.15 -0.05 1.20 -0.85 0.25z"/>
  <path d="M504.50 456.50 c-0.60 -0.40 -0.60 -0.50 0.15 -0.80 1.05 -0.40 1.75 0.10 1.05 0.80 -0.25 0.25 -0.75 0.30 -1.20 0z"/>
  <path d="M614.05 453.40 c-0.05 -0.50 -0.25 -0.90 -0.55 -0.90 -0.25 0 -0.50 -0.20 -0.50 -0.50 0 -0.25 0.35 -0.50 0.75 -0.50 0.40 0 0.75 -0.25 0.75 -0.60 0 -0.30 0.10 -0.45 0.20 -0.35 0.15 0.10 0.05 1 -0.20 1.95 -0.20 0.95 -0.40 1.35 -0.45 0.90z"/>
  <path d="M551.10 452.70 c-0.55 -0.60 -0.50 -0.70 0.25 -0.75 0.50 0 0.65 -0.15 0.30 -0.30 -0.50 -0.15 -0.50 -0.50 -0.05 -1.30 0.70 -1.40 1.35 -1.85 2.80 -1.85 1.25 0 1.50 0.90 0.35 1.35 -0.45 0.15 -1.30 1 -1.90 1.90 -0.95 1.35 -1.20 1.50 -1.75 0.95z"/>
  <path d="M507.55 451.55 c-0.90 -0.55 -0.25 -2.55 0.85 -2.55 1.25 0 -1.70 -1.45 -4.65 -2.35 -3.75 -1.05 -3.85 -1.10 -3.50 -1.65 0.25 -0.40 0.75 -0.30 1.60 0.25 0.70 0.45 2.60 1.10 4.30 1.45 3.10 0.65 3.10 0.65 2.95 2.30 -0.15 2.20 -0.70 3.05 -1.55 2.55z"/>
  <path d="M464.80 450.25 c-0.15 -0.45 0 -0.75 0.45 -0.75 0.80 0 1 0.80 0.30 1.20 -0.25 0.15 -0.55 -0.05 -0.75 -0.45z"/>
  <path d="M497.25 442.70 c-0.45 -0.45 -0.65 -0.95 -0.50 -1.10 0.15 -0.15 0.75 0.20 1.40 0.80 0.60 0.60 0.80 1.10 0.50 1.10 -0.30 0 -0.95 -0.35 -1.40 -0.80z"/>
  <path d="M388.50 436.05 c0 -0.55 -0.30 -1.10 -0.60 -1.20 -0.40 -0.15 -0.30 -0.30 0.25 -0.30 0.60 -0.05 0.85 0.35 0.85 1.20 0 0.70 -0.10 1.25 -0.25 1.25 -0.15 0 -0.25 -0.45 -0.25 -0.95z"/>
  <path d="M496.55 424.55 c-0.55 -0.35 -0.45 -0.50 0.40 -0.80 0.55 -0.15 1.55 -0.80 2.20 -1.35 1.90 -1.70 6.85 -2.75 6.85 -1.50 0 0.20 -1.30 0.75 -2.90 1.30 -1.55 0.50 -3.45 1.35 -4.20 1.85 -1.50 1.10 -1.45 1.05 -2.35 0.50z"/>
  <path d="M507.35 420.55 c0.75 -0.80 1.35 -1.05 2.10 -0.80 1.45 0.45 1.30 1.25 -0.15 1.25 -0.65 0 -1.60 0.15 -2.10 0.35 -0.80 0.30 -0.75 0.15 0.15 -0.80z"/>
  <path d="M515.40 420.65 c0.60 -0.10 1.10 -0.45 1.10 -0.70 0 -0.75 2.15 -0.35 2.40 0.45 0.15 0.40 -0.50 0.60 -2.25 0.55 -1.30 -0.05 -1.90 -0.20 -1.25 -0.30z"/>
  <path d="M629.40 410 c-0.35 -1.20 -0.15 -1.90 0.40 -1.40 0.15 0.20 0.20 0.85 0.10 1.50 l-0.15 1.15 -0.35 -1.25z"/>
  <path d="M396.15 408.20 c-0.35 -0.35 -0.65 -0.95 -0.65 -1.35 0 -0.40 -0.50 -1.35 -1.10 -2.15 -0.70 -1 -0.35 -0.80 1.10 0.60 1.55 1.55 2 2.30 1.70 2.85 -0.40 0.60 -0.55 0.65 -1.05 0.05z"/>
  <path d="M543.30 404.40 c-1.15 -1.65 -0.45 -1.80 1.10 -0.25 1.05 1.05 1.15 1.35 0.50 1.35 -0.45 0 -1.20 -0.50 -1.60 -1.10z"/>
  <path d="M456 399 c0 -0.25 0.35 -0.50 0.75 -0.50 0.40 0 0.75 0.25 0.75 0.50 0 0.30 -0.35 0.50 -0.75 0.50 -0.40 0 -0.75 -0.20 -0.75 -0.50z"/>
  <path d="M455.50 397 c0 -0.25 0.35 -0.50 0.75 -0.50 0.40 0 0.75 0.25 0.75 0.50 0 0.30 -0.35 0.50 -0.75 0.50 -0.40 0 -0.75 -0.20 -0.75 -0.50z"/>
  <path d="M410.70 383.10 c0.20 -0.35 0.05 -0.60 -0.40 -0.60 -0.45 0 -0.80 -0.35 -0.80 -0.75 0 -0.40 0.45 -0.75 1 -0.75 1.10 0 1.40 1.70 0.40 2.30 -0.35 0.20 -0.40 0.15 -0.20 -0.20z"/>
  <path d="M614.55 382.55 c-0.45 -0.80 -0.40 -0.90 0.45 -0.70 1.05 0.30 1.30 0.90 0.55 1.40 -0.30 0.15 -0.75 -0.15 -1 -0.70z"/>
  <path d="M551.50 380.50 c0 -0.25 0.35 -0.50 0.75 -0.50 0.40 0 0.75 0.25 0.75 0.50 0 0.30 -0.35 0.50 -0.75 0.50 -0.40 0 -0.75 -0.20 -0.75 -0.50z"/>
  <path d="M554.55 380.80 c0.60 -0.50 2.95 -0.75 2.95 -0.30 0 0.25 -0.70 0.50 -1.60 0.50 -0.85 0 -1.45 -0.10 -1.35 -0.20z"/>
  <path d="M439.75 339.95 c-0.45 -1.35 0 -1.75 1 -0.95 0.95 0.80 0.95 1.30 0.05 1.65 -0.45 0.20 -0.85 -0.10 -1.05 -0.70z"/>
  <path d="M438.80 337.25 c-0.15 -0.40 -0.10 -0.75 0.15 -0.75 0.25 0 0.70 0.35 1.05 0.75 0.50 0.60 0.50 0.75 -0.15 0.75 -0.40 0 -0.85 -0.35 -1.05 -0.75z"/>
  <path d="M527.80 331.60 c-0.10 -0.20 0.55 -0.30 1.50 -0.20 0.95 0.10 1.70 0.30 1.70 0.40 0 0.40 -2.95 0.20 -3.20 -0.20z"/>
  <path d="M500.75 331 c0.85 -0.20 1.95 -0.40 2.50 -0.40 0.80 0 0.75 0.10 -0.25 0.40 -0.70 0.20 -1.80 0.40 -2.50 0.40 -1.10 0 -1.10 -0.05 0.25 -0.40z"/>
  <path d="M519.90 330.65 c0.90 -0.10 2.25 -0.10 3 0 0.75 0.10 0 0.20 -1.65 0.20 -1.65 0 -2.25 -0.10 -1.35 -0.20z"/>
  <path d="M425.20 322.30 c-0.50 -0.40 -0.75 -0.90 -0.55 -1.10 0.20 -0.20 0.85 0.10 1.50 0.70 1.20 1.25 0.60 1.50 -0.95 0.40z"/>
  <path d="M420.60 318 c-0.90 -0.85 -1.35 -1.50 -1 -1.50 0.65 0.05 3.40 2.25 3.40 2.75 0 0.60 -0.85 0.15 -2.40 -1.25z"/>
  <path d="M563.50 315.50 c-0.60 -0.40 -0.60 -0.50 0.15 -0.80 1.05 -0.40 1.75 0.10 1.05 0.80 -0.25 0.25 -0.75 0.30 -1.20 0z"/>
  <path d="M595.30 283.75 c-0.15 -0.45 0 -0.75 0.45 -0.75 0.80 0 1 0.80 0.30 1.20 -0.25 0.15 -0.55 -0.05 -0.75 -0.45z"/>
  <path d="M618.80 268.25 c-0.15 -0.45 0 -0.75 0.45 -0.75 0.80 0 1 0.80 0.30 1.20 -0.25 0.15 -0.55 -0.05 -0.75 -0.45z"/>
  <path d="M657.55 263.30 c-0.65 -0.35 -1 -0.75 -0.75 -0.90 0.25 -0.15 0.90 0.15 1.40 0.65 1.15 1.10 1 1.15 -0.65 0.25z"/>
  <path d="M637.50 261.50 c0 -0.25 0.30 -0.50 0.70 -0.50 0.40 0 0.90 0.25 1.05 0.50 0.15 0.30 -0.15 0.50 -0.70 0.50 -0.60 0 -1.05 -0.20 -1.05 -0.50z"/>
 </g>
</svg>